<svg xmlns="http://www.w3.org/2000/svg" width="500" height="500" viewBox="0 0 500 500">
<g>
<path d="M 239.29 370.41 C227.38,364.64 217.25,350.17 208.94,327.00 L 205.17 316.50 L 201.83 316.78 C200.00,316.93 195.57,317.82 192.00,318.76 C182.06,321.36 154.59,321.21 146.65,318.51 C135.52,314.72 128.00,304.93 128.00,294.21 C128.00,282.99 137.08,265.03 151.22,248.30 C155.50,243.24 159.00,238.81 159.00,238.46 C159.00,238.10 156.49,235.04 153.42,231.66 C142.10,219.18 134.58,206.98 130.56,194.62 C127.17,184.20 127.26,179.33 130.98,171.54 C135.42,162.25 142.37,158.31 158.22,156.10 C166.65,154.93 185.90,156.61 197.85,159.57 C201.34,160.43 204.38,160.96 204.60,160.73 C204.82,160.51 206.10,157.21 207.43,153.41 C220.32,116.65 236.32,99.84 254.56,103.93 C264.61,106.18 275.32,117.14 283.32,133.38 C287.30,141.47 291.62,152.23 293.49,158.75 C294.25,161.40 294.83,161.45 302.13,159.55 C311.09,157.22 331.56,154.88 337.26,155.54 C356.51,157.77 365.23,162.35 369.49,172.50 C371.88,178.17 371.72,189.05 369.15,196.26 C367.66,200.46 367.26,203.36 367.68,206.90 C368.69,215.45 363.34,222.00 355.35,222.00 C354.06,222.00 353.00,222.44 353.00,222.98 C353.00,223.52 350.04,227.10 346.42,230.94 L 339.84 237.91 L 347.88 247.36 C360.59,262.30 367.69,274.23 370.05,284.64 C370.66,287.31 371.57,290.83 372.07,292.46 C372.65,294.33 372.62,295.78 371.99,296.41 C371.45,296.95 371.00,298.23 371.00,299.24 C371.00,305.39 362.56,314.44 353.38,318.12 C348.05,320.25 346.00,320.47 331.50,320.45 C318.51,320.44 313.62,320.01 305.52,318.16 C296.09,316.02 295.48,315.99 294.27,317.64 C293.57,318.60 293.00,319.92 293.00,320.57 C293.00,321.22 291.60,325.21 289.90,329.44 C287.38,335.68 286.92,337.95 287.44,341.48 C287.88,344.40 287.61,347.00 286.61,349.39 C285.11,352.97 279.95,356.99 276.83,357.00 C275.91,357.00 272.86,359.41 270.05,362.35 C260.20,372.67 249.67,375.43 239.29,370.41 ZM 257.19 357.44 C261.61,354.10 263.13,351.17 263.34,345.51 C263.51,341.09 264.07,339.53 266.34,337.16 C267.88,335.56 270.53,333.85 272.25,333.36 C274.88,332.60 275.78,331.43 278.15,325.66 C279.68,321.91 281.21,317.38 281.55,315.59 L 282.16 312.34 L 270.83 308.01 C264.60,305.62 257.93,302.85 256.01,301.84 C251.55,299.49 249.38,299.53 243.38,302.06 C234.82,305.69 229.52,307.77 221.75,310.56 C219.14,311.50 217.00,312.56 217.00,312.92 C217.00,313.98 220.65,323.95 223.91,331.83 C229.20,344.57 238.43,356.62 245.00,359.33 C247.64,360.42 254.69,359.33 257.19,357.44 ZM 183.00 307.68 C183.82,307.48 186.30,307.00 188.50,306.61 C190.70,306.22 194.41,305.41 196.75,304.82 C200.62,303.84 201.00,303.46 200.99,300.62 C200.98,298.90 200.33,294.78 199.55,291.46 C198.76,288.14 197.81,281.95 197.42,277.71 C197.04,273.47 196.22,269.39 195.61,268.64 C195.00,267.89 190.22,264.13 184.99,260.28 C179.76,256.43 174.36,252.10 172.99,250.66 C171.62,249.21 169.88,248.03 169.13,248.02 C166.10,247.98 150.27,268.23 145.39,278.39 C135.00,300.01 143.05,309.66 170.50,308.51 C176.55,308.25 182.18,307.88 183.00,307.68 ZM 342.94 308.01 C354.09,305.90 358.99,301.37 359.00,293.17 C359.00,283.97 349.95,267.50 337.64,254.29 C334.41,250.83 331.23,248.00 330.56,248.00 C329.89,248.00 328.26,249.16 326.92,250.58 C325.59,252.00 319.66,256.77 313.75,261.19 C307.84,265.60 303.00,269.50 303.00,269.85 C302.99,272.55 300.71,289.10 300.02,291.50 C299.55,293.15 298.88,296.57 298.54,299.11 L 297.92 303.72 L 302.21 304.79 C317.47,308.61 333.21,309.86 342.94,308.01 ZM 225.00 296.29 C229.12,294.88 232.87,293.40 233.32,292.99 C233.78,292.59 231.08,290.55 227.32,288.47 C223.57,286.39 218.62,283.40 216.32,281.84 C209.34,277.10 209.01,277.65 211.53,290.00 C213.57,300.02 213.71,300.33 215.76,299.53 C216.72,299.15 220.88,297.70 225.00,296.29 ZM 288.09 288.85 C289.13,283.71 289.98,279.39 289.99,279.25 C290.04,277.94 267.70,290.06 266.51,291.98 C266.23,292.44 269.26,294.04 273.25,295.52 C277.24,297.01 281.40,298.57 282.50,299.00 C283.60,299.43 284.88,299.42 285.35,298.98 C285.82,298.55 287.06,293.99 288.09,288.85 ZM 262.50 279.08 C274.45,272.76 290.03,263.24 291.23,261.54 C292.14,260.26 292.24,225.05 291.36,218.64 C290.76,214.24 290.38,213.77 283.90,209.50 C280.14,207.03 276.79,205.00 276.47,205.00 C276.14,205.00 274.43,203.95 272.68,202.66 C268.32,199.45 251.56,191.00 249.56,191.00 C247.03,191.00 213.79,210.23 209.25,214.32 C207.05,216.31 207.00,216.81 207.00,238.22 C207.00,263.32 206.45,261.76 217.47,268.17 C220.61,270.00 224.60,272.35 226.34,273.38 C234.07,277.98 248.18,285.00 249.68,285.00 C250.59,285.00 256.36,282.34 262.50,279.08 ZM 194.55 225.22 C194.28,224.94 191.51,226.92 188.41,229.61 C185.31,232.30 181.81,235.27 180.64,236.21 C177.79,238.48 178.81,240.05 187.59,246.86 L 194.50 252.23 L 194.78 238.98 C194.93,231.69 194.83,225.50 194.55,225.22 ZM 313.33 246.07 C317.44,242.81 321.06,239.72 321.37,239.21 C322.16,237.94 311.55,228.34 305.25,224.62 C304.27,224.04 304.00,226.97 304.00,237.94 C304.00,245.99 304.40,252.00 304.93,252.00 C305.45,252.00 309.23,249.33 313.33,246.07 ZM 177.35 222.71 C181.28,219.26 187.07,214.49 190.21,212.12 C196.51,207.37 196.56,207.27 197.54,198.00 C197.92,194.43 199.04,187.68 200.03,183.00 C201.02,178.32 201.54,174.20 201.17,173.83 C200.03,172.68 188.91,170.16 179.50,168.92 C162.54,166.69 149.02,168.90 143.72,174.76 C138.93,180.06 141.21,192.87 149.29,206.03 C154.45,214.43 166.80,229.00 168.77,229.00 C169.56,229.00 173.42,226.17 177.35,222.71 ZM 338.40 222.76 C343.93,216.60 344.00,216.44 344.00,210.31 C344.00,202.96 346.16,199.72 352.50,197.55 C355.95,196.38 356.68,195.59 357.81,191.84 C359.56,186.03 358.87,177.63 356.42,174.87 C351.28,169.08 336.72,166.75 319.19,168.91 C310.47,169.98 299.27,172.40 298.24,173.43 C297.99,173.68 298.29,176.50 298.91,179.69 C299.53,182.89 300.70,190.42 301.51,196.44 C302.32,202.46 303.33,207.68 303.74,208.04 C304.16,208.39 307.88,211.22 312.00,214.32 C316.12,217.41 321.75,221.97 324.50,224.44 C327.25,226.90 330.24,228.94 331.15,228.96 C332.06,228.98 335.32,226.19 338.40,222.76 ZM 222.04 191.34 C232.32,185.10 234.75,183.00 231.73,183.00 C231.03,183.00 226.95,181.65 222.66,180.00 C218.38,178.35 214.72,177.00 214.54,177.00 C213.88,177.00 212.84,180.69 211.44,188.00 C209.88,196.14 209.71,198.00 210.54,198.00 C210.84,198.00 216.01,195.00 222.04,191.34 ZM 288.92 195.25 C288.88,194.29 288.31,190.13 287.64,186.01 C286.75,180.48 286.01,178.43 284.79,178.20 C282.94,177.84 268.22,182.84 267.45,184.08 C267.18,184.53 269.10,186.11 271.73,187.61 C274.35,189.10 278.96,191.83 281.97,193.66 C288.23,197.49 289.03,197.67 288.92,195.25 ZM 255.66 174.75 C258.33,173.51 265.34,170.93 271.23,169.00 C278.94,166.48 281.95,165.05 281.97,163.88 C282.11,156.51 270.06,131.34 262.47,123.14 C253.66,113.63 247.86,112.85 239.62,120.11 C236.00,123.29 226.00,137.56 226.00,139.54 C226.00,139.80 224.88,142.34 223.50,145.19 C222.12,148.04 221.00,150.85 220.99,151.44 C220.99,152.02 220.33,153.76 219.53,155.29 C218.73,156.83 217.80,159.57 217.46,161.38 C216.84,164.66 216.86,164.68 223.17,166.89 C226.65,168.11 233.77,170.84 239.00,172.96 C244.23,175.07 249.02,176.85 249.65,176.90 C250.28,176.96 252.99,175.99 255.66,174.75 ZM 235.56 270.20 C234.49,269.97 232.80,268.74 231.81,267.48 C230.81,266.22 227.96,263.90 225.47,262.34 C220.53,259.24 219.48,256.95 220.27,251.00 C220.67,248.02 220.36,246.73 218.90,245.41 C216.66,243.38 216.21,234.19 218.25,232.15 C218.94,231.46 219.51,228.85 219.53,226.34 C219.56,221.95 219.86,221.48 227.75,213.89 C235.21,206.70 236.29,206.00 239.97,206.00 C242.67,206.00 244.66,206.66 246.00,208.00 C247.90,209.90 248.00,211.33 248.00,237.33 L 248.00 264.65 L 245.66 266.85 C243.03,269.32 238.47,270.83 235.56,270.20 ZM 241.96 263.07 C242.53,262.00 243.00,258.85 243.00,256.07 C243.00,252.23 242.64,251.00 241.50,251.00 C239.95,251.00 232.00,258.37 232.00,259.81 C232.00,260.26 232.92,261.61 234.04,262.81 C236.57,265.53 240.58,265.66 241.96,263.07 ZM 230.26 254.14 C231.19,252.57 234.43,249.57 237.47,247.47 C241.44,244.74 243.00,243.03 243.00,241.39 C243.00,237.58 241.08,237.61 235.42,241.51 C225.46,248.37 222.25,252.85 225.20,255.80 C227.08,257.68 228.43,257.23 230.26,254.14 ZM 230.87 238.68 C234.51,236.31 238.74,233.60 240.25,232.66 C242.90,231.02 243.00,230.64 243.00,222.56 C243.00,217.94 242.73,213.45 242.39,212.58 C241.20,209.46 237.58,210.97 231.28,217.22 C224.83,223.61 224.37,224.45 225.95,226.96 C226.71,228.15 227.80,227.64 231.89,224.19 C236.69,220.14 236.95,220.05 237.99,221.98 C239.77,225.31 237.45,227.91 229.44,231.56 C223.71,234.17 221.91,235.49 221.42,237.47 C220.86,239.71 222.24,243.00 223.74,243.00 C224.01,243.00 227.22,241.06 230.87,238.68 ZM 255.08 267.41 L 252.00 264.82 L 252.00 237.41 C252.00,211.33 252.10,209.90 254.00,208.00 C258.33,203.67 263.49,205.57 273.94,215.35 C280.50,221.48 281.44,223.30 280.07,227.24 C279.18,229.80 279.29,230.67 280.74,232.27 C283.08,234.85 283.15,243.28 280.85,245.58 C279.59,246.84 279.41,247.93 280.07,250.23 C281.22,254.24 279.01,259.42 275.33,261.35 C273.77,262.16 270.95,264.44 269.05,266.41 C264.67,270.98 259.73,271.33 255.08,267.41 ZM 265.51 262.99 C267.12,261.21 267.17,260.68 265.94,258.39 C264.46,255.62 259.45,251.00 257.92,251.00 C256.47,251.00 256.78,263.74 258.25,264.34 C260.96,265.43 263.77,264.91 265.51,262.99 ZM 274.50 254.64 C276.42,251.70 275.59,249.36 271.96,247.48 C270.42,246.68 267.07,244.22 264.52,242.01 C259.14,237.36 257.00,236.93 257.00,240.49 C257.00,242.07 258.19,243.99 260.25,245.73 C262.04,247.24 265.30,250.38 267.50,252.71 C269.70,255.04 271.83,256.95 272.23,256.97 C272.63,256.99 273.65,255.94 274.50,254.64 ZM 276.80 241.80 C279.35,239.25 277.55,234.00 274.14,234.00 C273.33,234.00 270.46,232.58 267.75,230.84 C262.78,227.65 260.57,224.28 261.64,221.51 C262.55,219.13 265.71,219.71 266.38,222.38 C267.55,227.02 275.00,229.65 275.00,225.41 C275.00,222.69 262.23,210.83 259.68,211.19 C257.61,211.48 257.50,211.99 257.50,221.43 L 257.50 231.35 L 266.00 237.18 C270.67,240.38 274.75,243.00 275.05,243.00 C275.35,243.00 276.14,242.46 276.80,241.80 ZM 257.38 150.08 C253.60,146.76 250.05,144.03 249.50,144.03 C248.95,144.02 246.02,146.47 243.00,149.47 C236.93,155.49 232.95,156.64 230.98,152.96 C229.25,149.74 230.48,147.78 240.03,138.58 C248.28,130.63 249.18,130.03 251.25,131.12 C254.35,132.75 270.00,148.09 270.00,149.49 C270.00,150.11 268.71,151.86 267.13,153.38 L 264.26 156.13 L 257.38 150.08 Z" fill="#1b3857"/>
</g>
</svg>