<?xml version="1.0" encoding="UTF-8"?>
<svg version="1.1" xmlns="http://www.w3.org/2000/svg" width="2000" height="899">
<path d="M0 0 C17.65339433 9.64424054 25.02025366 31.92687017 30.40039062 50.05175781 C33.88161362 62.49570993 37.07876569 75.15737642 38.23828125 88.046875 C39.22570312 87.6859375 40.213125 87.325 41.23046875 86.953125 C42.52467916 86.48420819 43.81895331 86.01546731 45.11328125 85.546875 C46.08974609 85.18916016 46.08974609 85.18916016 47.0859375 84.82421875 C52.01171875 83.046875 52.01171875 83.046875 54.23828125 83.046875 C54.32078125 82.180625 54.40328125 81.314375 54.48828125 80.421875 C55.96755992 73.76512098 59.98832465 69.98434245 65.23828125 66.046875 C71.12115907 62.72435898 77.01034785 62.46054036 83.48828125 64.171875 C87.83117126 65.6687289 90.37124333 67.36068339 93.23828125 71.046875 C93.70234375 71.57796875 94.16640625 72.1090625 94.64453125 72.65625 C98.73303403 77.97130362 98.97570538 83.12697044 98.72265625 89.69921875 C97.81620995 95.96393231 94.84710972 99.77870536 90.23828125 103.921875 C83.55735384 108.65419858 77.23847429 108.82077517 69.23828125 108.046875 C63.28344033 106.37534071 59.71616535 103.04633339 56.23828125 98.046875 C56.23828125 97.386875 56.23828125 96.726875 56.23828125 96.046875 C55.25085938 96.4078125 54.2634375 96.76875 53.24609375 97.140625 C51.95188334 97.60954181 50.65760919 98.07828269 49.36328125 98.546875 C48.38681641 98.90458984 48.38681641 98.90458984 47.390625 99.26953125 C42.46484375 101.046875 42.46484375 101.046875 40.23828125 101.046875 C40.35945312 101.68367188 40.480625 102.32046875 40.60546875 102.9765625 C41.62041082 108.86322648 42.28599031 114.3341696 42.25390625 120.3125 C41.90754896 131.71257447 41.90754896 131.71257447 45.65283203 142.12353516 C49.26703114 145.56384832 53.5303033 147.70696906 57.98974609 149.86523438 C61.86890363 151.90379273 65.26275259 154.58276272 68.73828125 157.234375 C69.99744972 158.16705208 71.25774622 159.09820958 72.51953125 160.02734375 C73.8653125 161.02701172 73.8653125 161.02701172 75.23828125 162.046875 C95.87356673 152.59882857 119.49607383 125.02609478 127.3984375 103.953125 C128.57144998 99.89395622 128.70839269 97.27787797 128.23828125 93.046875 C124.67724579 88.2290035 120.88979286 86.61474118 115.078125 85.7109375 C113.13544073 85.45739493 111.18704114 85.24847085 109.23828125 85.046875 C109.23828125 80.756875 109.23828125 76.466875 109.23828125 72.046875 C120.28217019 71.57356547 129.75743376 73.51602061 138.23828125 81.046875 C143.08216307 86.53051479 142.83746925 93.31760954 142.609375 100.3125 C140.00411 126.52969301 111.9265144 150.75628557 93.23828125 167.046875 C91.58319495 168.39455631 89.92102789 169.73389392 88.23828125 171.046875 C90.40355628 173.06921755 92.57022975 175.09001184 94.73828125 177.109375 C95.38466553 177.71209229 96.0310498 178.31480957 96.69702148 178.93579102 C99.84267945 181.85938395 103.00145905 184.73375218 106.30078125 187.484375 C121.48978134 200.69361226 140.35881913 220.99888942 142.5234375 241.78515625 C142.89453098 249.27363244 141.71005749 254.94306363 137.23828125 261.046875 C130.96392203 267.62730052 122.56755522 270.03996552 113.671875 270.515625 C111.67345017 270.55026725 109.67446577 270.55960446 107.67578125 270.546875 C106.59224365 270.54042969 105.50870605 270.53398438 104.39233398 270.52734375 C81.99016312 270.0355217 58.89547878 263.51762811 38.23828125 255.046875 C37.76592755 257.60721258 37.33518134 260.16387934 36.92578125 262.734375 C36.78849609 263.45560547 36.65121094 264.17683594 36.50976562 264.91992188 C36.08385845 267.35550012 36.08385845 267.35550012 36.23828125 271.046875 C38.47690534 273.92651323 38.47690534 273.92651323 41.23828125 276.046875 C44.76753182 282.2230635 46.43621689 287.88966057 44.77734375 295.03125 C42.66037389 301.45687617 39.02993104 306.22623384 33.36328125 309.921875 C24.87176712 312.97882009 17.14218997 312.31021749 8.98828125 308.546875 C4.1009501 304.10384668 0.81463001 299.42321597 -0.3125 292.8203125 C-0.61265107 285.49662647 0.45751847 279.73117908 5.23828125 274.046875 C11.22710838 268.53575587 14.83525118 267.046875 23.23828125 267.046875 C23.89828125 261.436875 24.55828125 255.826875 25.23828125 250.046875 C22.31082031 248.69142578 22.31082031 248.69142578 19.32421875 247.30859375 C17.41770581 246.42510198 15.51133652 245.54130096 13.60498047 244.6574707 C12.28807284 244.04712163 10.97101797 243.43709016 9.65380859 242.82739258 C7.7518827 241.94697798 5.85050321 241.06539254 3.94921875 240.18359375 C2.80759277 239.65467529 1.6659668 239.12575684 0.48974609 238.58081055 C-2.76171875 237.046875 -2.76171875 237.046875 -5.86865234 235.22583008 C-8.65566319 233.75530584 -8.65566319 233.75530584 -11.26171875 234.6875 C-12.08671875 235.13609375 -12.91171875 235.5846875 -13.76171875 236.046875 C-14.71046875 236.47484375 -15.65921875 236.9028125 -16.63671875 237.34375 C-17.66796875 237.82328125 -18.69921875 238.3028125 -19.76171875 238.796875 C-21.46328125 239.58578125 -21.46328125 239.58578125 -23.19921875 240.390625 C-24.96265625 241.21046875 -24.96265625 241.21046875 -26.76171875 242.046875 C-29.0944935 243.13141063 -31.42780689 244.21478859 -33.76171875 245.296875 C-34.79296875 245.77640625 -35.82421875 246.2559375 -36.88671875 246.75 C-39.48781154 247.92331903 -42.10341087 249.01091678 -44.76171875 250.046875 C-38.95348308 292.284674 -38.95348308 292.284674 -17.015625 327.56640625 C-13.98053892 329.58754375 -11.76602899 330.046875 -8.13671875 330.046875 C-1.85584337 328.18587489 0.88813031 324.50638024 4.23828125 319.046875 C9.26520188 319.50386778 12.38724386 322.03929248 16.23828125 325.046875 C14.82836417 329.41761794 12.73377636 331.95588439 9.48828125 335.171875 C8.6478125 336.02007813 7.80734375 336.86828125 6.94140625 337.7421875 C0.89879251 342.89412696 -4.98866195 344.17714969 -12.76171875 344.046875 C-21.80675799 342.90875748 -28.20247904 336.53239226 -33.66796875 329.64453125 C-46.89160139 310.13967311 -57.76171875 279.71323389 -57.76171875 256.046875 C-58.52613281 256.29856445 -59.29054688 256.55025391 -60.078125 256.80957031 C-89.54561061 266.48135936 -89.54561061 266.48135936 -101.76171875 269.046875 C-102.96598511 269.3085144 -102.96598511 269.3085144 -104.19458008 269.57543945 C-111.2780189 271.00893948 -118.10815227 271.38141552 -125.32421875 271.359375 C-126.38318359 271.37548828 -127.44214844 271.39160156 -128.53320312 271.40820312 C-139.20849639 271.41478063 -148.58152133 269.22541559 -156.76171875 262.046875 C-161.40420317 256.12193632 -162.65167451 249.42225551 -161.76171875 242.046875 C-159.38731772 232.41085288 -155.72565504 224.03812057 -149.76171875 216.046875 C-149.1284668 215.19585205 -149.1284668 215.19585205 -148.48242188 214.32763672 C-136.63644134 198.61468287 -122.53916085 183.85336538 -106.76171875 172.046875 C-107.98429107 170.76969648 -109.2151152 169.50041469 -110.44921875 168.234375 C-111.13371094 167.52667969 -111.81820312 166.81898438 -112.5234375 166.08984375 C-115.96518069 162.9484272 -118.27511078 161.11614347 -123.03125 160.89453125 C-124.20042969 160.96542969 -125.36960938 161.03632813 -126.57421875 161.109375 C-132.61587157 161.21669799 -137.02561524 161.00097072 -141.76171875 157.046875 C-147.28670939 151.1130846 -150.22881019 145.55087782 -150.01171875 137.3828125 C-149.30318824 130.7624805 -146.52036278 125.69977139 -141.76171875 121.046875 C-136.12465632 116.64120971 -130.08401877 116.37434156 -123.10546875 116.60546875 C-116.19929911 117.51714769 -112.51794221 120.82364414 -108.32421875 126.171875 C-104.08580154 132.10796886 -104.2248048 137.95066234 -104.76171875 145.046875 C-105.51691619 147.93155359 -106.5060414 150.32624073 -107.76171875 153.046875 C-107.189375 153.30210937 -106.61703125 153.55734375 -106.02734375 153.8203125 C-103.51998142 155.17774659 -101.62867315 156.76661604 -99.51171875 158.671875 C-98.8053125 159.30351562 -98.09890625 159.93515625 -97.37109375 160.5859375 C-96.84 161.06804687 -96.30890625 161.55015625 -95.76171875 162.046875 C-89.13752439 157.7812953 -82.83228846 153.17804403 -76.64111328 148.30493164 C-74.76171875 147.046875 -74.76171875 147.046875 -72.00341797 145.80249023 C-68.67901796 144.16416384 -66.33962004 142.72641683 -63.76171875 140.046875 C-61.98495088 134.40131403 -61.80873789 128.86681533 -61.63671875 122.984375 C-61.55567253 121.42877391 -61.4697746 119.87341763 -61.37890625 118.31835938 C-61.2141252 115.45850422 -61.08263572 112.60057897 -60.97607422 109.73803711 C-60.78410704 106.43239729 -60.37839305 103.29656554 -59.76171875 100.046875 C-60.48053223 99.91635742 -61.1993457 99.78583984 -61.93994141 99.65136719 C-64.68968833 99.06230564 -67.2497312 98.28157328 -69.91015625 97.375 C-106.44089941 84.24106233 -106.44089941 84.24106233 -143.76171875 88.046875 C-146.51174233 90.05908738 -147.48936731 91.12399268 -148.4453125 94.36328125 C-148.80783395 97.43800021 -148.30024574 99.2131381 -147.26171875 102.109375 C-145.25205054 107.73124856 -145.25205054 107.73124856 -146.76171875 111.046875 C-148.50390625 112.34765625 -148.50390625 112.34765625 -150.63671875 113.359375 C-151.33539063 113.70613281 -152.0340625 114.05289063 -152.75390625 114.41015625 C-154.76171875 115.046875 -154.76171875 115.046875 -157.76171875 114.046875 C-162.46005536 106.83437833 -162.72366723 98.35731652 -161.76171875 90.046875 C-160.09919086 83.84928583 -156.20807874 79.33414228 -150.76171875 76.046875 C-125.27759576 63.22517562 -90.27958929 76.07829573 -65.31933594 84.16479492 C-62.76339334 85.04629746 -60.2629153 86.02122675 -57.76171875 87.046875 C-57.61476563 86.098125 -57.4678125 85.149375 -57.31640625 84.171875 C-52.79685361 56.23186754 -46.15022291 19.88704509 -21.88671875 1.984375 C-15.3645566 -2.05936553 -7.26021129 -2.50564576 0 0 Z M-18.640625 15.69140625 C-34.04647542 31.45903789 -38.90144603 55.91728693 -43.26171875 76.734375 C-43.52936035 78.00627686 -43.79700195 79.27817871 -44.07275391 80.58862305 C-45.60347034 86.86005292 -45.60347034 86.86005292 -44.76171875 93.046875 C-43.03008764 94.18276712 -43.03008764 94.18276712 -40.8515625 95.0625 C-40.0356665 95.424646 -39.21977051 95.78679199 -38.37915039 96.15991211 C-36.56448102 96.92978687 -34.7471641 97.69344564 -32.92749023 98.45141602 C-28.64853536 100.25176491 -24.67289272 101.96378127 -20.89453125 104.68359375 C-16.93584825 107.35296357 -13.65560092 109.25036474 -8.76171875 109.046875 C0.41841515 106.27172957 8.8460817 101.50714762 17.14892578 96.78369141 C20.13587368 95.1044479 23.16165698 93.55429965 26.23828125 92.046875 C20.01642532 49.36689926 20.01642532 49.36689926 -2.88671875 14.046875 C-9.0768725 9.74068108 -13.01628751 10.76864932 -18.640625 15.69140625 Z M69.36328125 78.109375 C66.78295385 81.67629817 66.08368869 83.6409871 66.23828125 88.046875 C67.96524815 91.07414638 70.07781454 93.46664165 73.23828125 95.046875 C77.43482734 95.61913128 78.95760299 95.23222857 82.55078125 92.859375 C85.28537642 90.32080745 85.28537642 90.32080745 86.30078125 87.609375 C86.1951667 83.27917859 84.40210953 80.29383387 81.48828125 77.171875 C76.91906392 74.88726633 73.47665328 75.15847767 69.36328125 78.109375 Z M-47.76171875 106.046875 C-49.08304455 114.7888609 -50.09337463 123.184293 -49.76171875 132.046875 C-40.90551447 127.35179789 -32.32596555 122.24783459 -23.76171875 117.046875 C-26.40723329 114.95303703 -28.93764163 113.3704565 -32.01953125 112.00390625 C-32.80972656 111.65263672 -33.59992188 111.30136719 -34.4140625 110.93945312 C-35.23003906 110.58302734 -36.04601562 110.22660156 -36.88671875 109.859375 C-38.12228516 109.30733398 -38.12228516 109.30733398 -39.3828125 108.74414062 C-43.42636826 106.77544376 -43.42636826 106.77544376 -47.76171875 106.046875 Z M16.73828125 109.921875 C15.25521484 110.61216797 15.25521484 110.61216797 13.7421875 111.31640625 C12.33259766 111.98349609 12.33259766 111.98349609 10.89453125 112.6640625 C9.59225586 113.27677002 9.59225586 113.27677002 8.26367188 113.90185547 C6.08727554 114.8834465 6.08727554 114.8834465 5.23828125 117.046875 C6.00906006 117.46984863 6.00906006 117.46984863 6.79541016 117.90136719 C9.15289652 119.19710918 11.50809459 120.49695802 13.86328125 121.796875 C14.67152344 122.2403125 15.47976563 122.68375 16.3125 123.140625 C20.7634681 125.60132281 25.05672588 128.15091109 29.23828125 131.046875 C29.89828125 130.716875 30.55828125 130.386875 31.23828125 130.046875 C30.24828125 121.796875 29.25828125 113.546875 28.23828125 105.046875 C24.59712035 105.046875 19.97817757 108.3885212 16.73828125 109.921875 Z M-15.42578125 125.5390625 C-16.37622314 126.07474854 -17.32666504 126.61043457 -18.3059082 127.16235352 C-19.32257568 127.74299561 -20.33924316 128.3236377 -21.38671875 128.921875 C-22.41821045 129.50960693 -23.44970215 130.09733887 -24.51245117 130.70288086 C-30.74015528 134.27061971 -36.94876138 137.86836255 -43.07421875 141.609375 C-43.7305127 142.0017334 -44.38680664 142.3940918 -45.06298828 142.79833984 C-48.41772105 144.88566886 -50.31903318 146.37009631 -51.76171875 150.046875 C-52.07968886 152.1476287 -52.07968886 152.1476287 -52.06811523 154.36889648 C-52.08410263 155.21334824 -52.10009003 156.05779999 -52.11656189 156.92784119 C-52.12192459 157.83208328 -52.12728729 158.73632538 -52.1328125 159.66796875 C-52.14184097 160.60488052 -52.15086945 161.5417923 -52.16017151 162.50709534 C-52.17466399 164.48654997 -52.18355826 166.46605241 -52.18725586 168.44555664 C-52.19916367 171.47038467 -52.24836815 174.49317978 -52.29882812 177.51757812 C-52.30829145 179.44269839 -52.31552692 181.36783117 -52.3203125 183.29296875 C-52.33984482 184.19518661 -52.35937714 185.09740448 -52.37950134 186.02696228 C-52.34806481 190.41112215 -52.25733867 192.40397257 -49.51147461 195.96582031 C-47.11362542 197.78054698 -44.76570426 199.51976258 -42.20703125 201.09765625 C-41.35165771 201.62794434 -40.49628418 202.15823242 -39.61499023 202.70458984 C-38.71466064 203.25066895 -37.81433105 203.79674805 -36.88671875 204.359375 C-35.95867432 204.9260791 -35.03062988 205.4927832 -34.07446289 206.07666016 C-28.50332279 209.45267213 -22.90521411 212.77830091 -17.19921875 215.921875 C-16.59932129 216.26130127 -15.99942383 216.60072754 -15.38134766 216.95043945 C-12.25506048 218.67409962 -12.25506048 218.67409962 -8.7890625 218.72216797 C-5.45791225 217.61258685 -2.41411801 215.94250433 0.67578125 214.296875 C1.4028125 213.91072021 2.12984375 213.52456543 2.87890625 213.12670898 C9.29222742 209.66203348 15.53135485 205.9295126 21.73828125 202.109375 C22.66439209 201.54186523 23.59050293 200.97435547 24.54467773 200.38964844 C25.40262939 199.85500977 26.26058105 199.32037109 27.14453125 198.76953125 C27.91087891 198.29265869 28.67722656 197.81578613 29.46679688 197.32446289 C31.37775587 196.15446906 31.37775587 196.15446906 32.23828125 194.046875 C32.35263132 192.62382547 32.40761401 191.19575296 32.43115234 189.76831055 C32.45524673 188.44134407 32.45524673 188.44134407 32.47982788 187.08757019 C32.5242784 183.03991448 32.56534266 178.99242278 32.58837891 174.94458008 C32.60493966 172.80970357 32.63223113 170.67488254 32.67041016 168.5402832 C32.72517458 165.4627607 32.74705238 162.38653789 32.76171875 159.30859375 C32.79572281 157.88023445 32.79572281 157.88023445 32.83041382 156.42301941 C32.81601222 151.90501414 32.78193533 149.75925942 29.97436523 146.08032227 C27.66157857 144.36146796 25.41704374 142.7144814 22.9375 141.25 C22.13231934 140.77014648 21.32713867 140.29029297 20.49755859 139.79589844 C19.64887207 139.3012207 18.80018555 138.80654297 17.92578125 138.296875 C17.04873535 137.77899414 16.17168945 137.26111328 15.26806641 136.72753906 C12.59753484 135.15663814 9.91961633 133.59925308 7.23828125 132.046875 C6.42536621 131.57507813 5.61245117 131.10328125 4.77490234 130.6171875 C2.55880706 129.33576871 0.3379267 128.06338235 -1.88671875 126.796875 C-2.55485596 126.4143457 -3.22299316 126.03181641 -3.91137695 125.63769531 C-9.06576062 122.74186762 -10.35511187 122.67403352 -15.42578125 125.5390625 Z M-135.76171875 133.046875 C-137.3722118 135.77771103 -137.77808062 137.39240018 -137.69921875 140.546875 C-136.39274502 144.03080494 -134.65572635 145.73166892 -131.76171875 148.046875 C-128.1587039 149.24787995 -126.55921345 149.39925638 -123.07421875 147.859375 C-119.90071989 145.37961761 -119.90071989 145.37961761 -117.76171875 142.046875 C-117.76171875 137.72316402 -118.31991276 135.6275343 -120.94921875 132.171875 C-126.69568761 127.83009853 -130.37832104 128.39757698 -135.76171875 133.046875 Z M-71.44921875 160.734375 C-72.06216797 161.16943359 -72.67511719 161.60449219 -73.30664062 162.05273438 C-77.27468994 164.8930666 -81.04817149 167.88094762 -84.76171875 171.046875 C-81.1720396 175.00400162 -76.96835635 177.82057913 -72.57421875 180.796875 C-71.83751953 181.30347656 -71.10082031 181.81007813 -70.34179688 182.33203125 C-67.28825896 184.82068018 -67.28825896 184.82068018 -63.76171875 186.046875 C-63.76171875 176.146875 -63.76171875 166.246875 -63.76171875 156.046875 C-66.30188826 156.046875 -69.3603592 159.23320683 -71.44921875 160.734375 Z M45.23828125 157.046875 C45.23828125 166.616875 45.23828125 176.186875 45.23828125 186.046875 C50.99057453 182.85115651 55.71892612 180.14798757 60.80078125 176.234375 C61.83332031 175.44417969 62.86585938 174.65398437 63.9296875 173.83984375 C64.69152344 173.24816406 65.45335937 172.65648437 66.23828125 172.046875 C62.48462618 168.07872535 58.50903305 164.87890997 54.05078125 161.734375 C53.1081543 161.0527832 53.1081543 161.0527832 52.14648438 160.35742188 C49.00221452 157.87858029 49.00221452 157.87858029 45.23828125 157.046875 Z M-102.57421875 184.796875 C-103.43829346 185.53852905 -103.43829346 185.53852905 -104.31982422 186.29516602 C-133.5571183 210.91543013 -133.5571183 210.91543013 -149.76171875 244.421875 C-149.76171875 248.44129986 -149.30171163 249.98136635 -146.76171875 253.046875 C-140.82186169 258.77459431 -132.33838555 258.45478412 -124.62841797 258.40600586 C-103.76416254 257.93796033 -79.25748243 251.72591568 -60.76171875 242.046875 C-59.58139619 220.28305016 -59.58139619 220.28305016 -65.11816406 199.83007812 C-68.40756402 196.55852301 -72.35630228 194.86382923 -76.58886719 193.09716797 C-80.65204883 191.13314466 -84.05444672 188.2154405 -87.57421875 185.421875 C-94.41156901 180.09770224 -95.87855062 179.00378527 -102.57421875 184.796875 Z M68.77734375 185.4609375 C66.0277095 187.64628737 63.18908402 189.08377962 60.01171875 190.5703125 C49.24224329 195.89332282 49.24224329 195.89332282 42.99316406 205.68652344 C40.98496819 214.96170178 41.08124479 224.60589681 41.23828125 234.046875 C41.23739919 235.70573353 41.23421869 237.3645964 41.2265625 239.0234375 C41.23042969 240.02117187 41.23429688 241.01890625 41.23828125 242.046875 C64.49205039 251.50779747 98.0964667 264.68334973 123.171875 255.94921875 C126.03311938 254.69979067 127.57403413 253.72414211 129.23828125 251.046875 C131.23766623 243.924066 129.47166489 238.56496584 126.23828125 232.046875 C115.13974337 213.45565332 99.18613721 197.32671158 82.23828125 184.046875 C81.35011719 183.304375 80.46195313 182.561875 79.546875 181.796875 C74.82299633 178.21599912 72.61205875 182.14656731 68.77734375 185.4609375 Z M-49.76171875 211.046875 C-49.61987042 214.06794253 -49.47336208 217.08866597 -49.32421875 220.109375 C-49.28490234 220.95693359 -49.24558594 221.80449219 -49.20507812 222.67773438 C-49.16318359 223.51240234 -49.12128906 224.34707031 -49.078125 225.20703125 C-49.04146729 225.96636963 -49.00480957 226.72570801 -48.96704102 227.50805664 C-48.70869494 230.70251666 -48.21495859 233.87419614 -47.76171875 237.046875 C-39.84171875 233.746875 -31.92171875 230.446875 -23.76171875 227.046875 C-26.27391556 224.53467819 -28.06686049 223.13848609 -31.0703125 221.41796875 C-31.89982422 220.94037109 -32.72933594 220.46277344 -33.58398438 219.97070312 C-34.44701172 219.48021484 -35.31003906 218.98972656 -36.19921875 218.484375 C-37.05837891 217.99001953 -37.91753906 217.49566406 -38.80273438 216.98632812 C-42.41662259 214.91444031 -46.01993467 212.88037572 -49.76171875 211.046875 Z M24.30078125 213.8203125 C23.32367188 214.3978125 22.3465625 214.9753125 21.33984375 215.5703125 C20.31632813 216.18132812 19.2928125 216.79234375 18.23828125 217.421875 C17.21476563 218.02515625 16.19125 218.6284375 15.13671875 219.25 C9.87917419 222.24069814 9.87917419 222.24069814 5.23828125 226.046875 C12.77176847 229.95828728 20.06003173 233.64980186 28.23828125 236.046875 C29.94743399 234.33772226 29.58966472 232.03925877 29.7734375 229.69921875 C29.86044922 228.61962891 29.94746094 227.54003906 30.03710938 226.42773438 C30.12412109 225.29142578 30.21113281 224.15511719 30.30078125 222.984375 C30.39166016 221.84419922 30.48253906 220.70402344 30.57617188 219.52929688 C30.80092671 216.70211759 31.02143836 213.87467036 31.23828125 211.046875 C28.36510851 211.046875 26.76647492 212.36061831 24.30078125 213.8203125 Z M14.98828125 282.859375 C12.93018466 285.43199574 12.31672728 286.75214163 12.23828125 290.046875 C13.49352465 293.53366223 14.67638497 295.56301987 17.48828125 297.984375 C21.273917 299.44700699 23.36158531 299.22372912 27.23828125 298.046875 C30.3916475 295.56287703 30.3916475 295.56287703 32.23828125 292.046875 C32.39624658 287.54486322 31.75114073 285.68448409 28.92578125 282.171875 C23.6455944 277.99684353 20.20585878 278.65632643 14.98828125 282.859375 Z " fill="#ffffff" transform="translate(254.76171875,277.953125)"/>
<path d="M0 0 C1.21139648 -0.04350586 1.21139648 -0.04350586 2.44726562 -0.08789062 C6.22916632 -0.12815656 8.57922453 -0.0312322 11.91796875 1.85546875 C14.84246633 5.02157714 17.27024832 8.37508496 19.6875 11.9375 C20.75031503 13.47333977 21.81415109 15.00847338 22.87890625 16.54296875 C23.42434082 17.3323584 23.96977539 18.12174805 24.53173828 18.93505859 C27.18230804 22.7409047 29.90212713 26.49570469 32.625 30.25 C33.16229736 30.99233887 33.69959473 31.73467773 34.25317383 32.49951172 C35.3461686 34.00952954 36.43951262 35.51929462 37.53320312 37.02880859 C40.31668226 40.87129145 43.09599482 44.71678086 45.875 48.5625 C46.360896 49.234021 46.84679199 49.90554199 47.34741211 50.59741211 C52.32343225 57.48190749 57.24984734 64.39978628 62.1875 71.3125 C62.5175 48.2125 62.8475 25.1125 63.1875 1.3125 C66.48427888 -0.33588944 70.13066044 0.16977262 73.75 0.1875 C74.54341797 0.18363281 75.33683594 0.17976563 76.15429688 0.17578125 C82.06086933 0.18586933 82.06086933 0.18586933 83.1875 1.3125 C83.28285213 2.67858326 83.3093867 4.04955455 83.30775452 5.41896057 C83.30981651 6.74625183 83.30981651 6.74625183 83.31192017 8.10035706 C83.30652725 9.56770546 83.30652725 9.56770546 83.30102539 11.06469727 C83.30117142 12.0889682 83.30131744 13.11323914 83.3014679 14.16854858 C83.30076828 17.57202229 83.29297363 20.97544204 83.28515625 24.37890625 C83.28329224 26.73160268 83.28186826 29.0842995 83.28086853 31.43699646 C83.27704199 37.64306705 83.26721055 43.8491144 83.25616455 50.05517578 C83.24595334 56.38248378 83.24137154 62.70979552 83.23632812 69.03710938 C83.2255884 81.46224982 83.20851036 93.88737298 83.1875 106.3125 C79.78414369 106.42900151 76.38130236 106.49984809 72.9765625 106.5625 C72.01371338 106.59601563 71.05086426 106.62953125 70.05883789 106.6640625 C62.89299003 106.76311526 62.89299003 106.76311526 59.30395508 104.47070312 C57.22602778 101.89550653 55.74920074 99.23050773 54.1875 96.3125 C52.95884917 94.44955624 51.68137678 92.6267474 50.39746094 90.80151367 C48.96559313 88.76352852 47.56547043 86.70620395 46.16796875 84.64453125 C43.13298803 80.20135171 39.98129814 75.84830579 36.8125 71.5 C31.62781549 64.37765213 26.60519826 57.15783636 21.67626953 49.85620117 C21.17595215 49.11732666 20.67563477 48.37845215 20.16015625 47.6171875 C19.72968994 46.97765137 19.29922363 46.33811523 18.85571289 45.67919922 C16.3793956 42.16603958 13.76641405 38.75105206 11.1875 35.3125 C10.8575 58.7425 10.5275 82.1725 10.1875 106.3125 C3.2575 106.3125 -3.6725 106.3125 -10.8125 106.3125 C-10.8125 71.6625 -10.8125 37.0125 -10.8125 1.3125 C-7.44636353 -0.37056823 -3.69816492 0.04364475 0 0 Z " fill="#ffffff" transform="translate(1826.8125,342.6875)"/>
<path d="M0 0 C0.80940033 -0.00423477 1.61880066 -0.00846954 2.45272827 -0.01283264 C5.0857251 -0.02275833 7.71855021 -0.02274965 10.3515625 -0.01953125 C11.24137817 -0.018927 12.13119385 -0.01832275 13.04797363 -0.0177002 C57.23882901 0.06436082 57.23882901 0.06436082 72.9140625 13.875 C84.91682034 26.16230598 84.42385119 43.18971588 84.25 59.15625 C83.86689419 73.45823483 79.79564992 85.95035658 69.2265625 96.04296875 C58.4570865 104.74620807 46.31743004 106.48040256 32.9453125 106.36328125 C31.3061084 106.36026001 31.3061084 106.36026001 29.63378906 106.35717773 C25.58133704 106.34677385 21.52894522 106.31885159 17.4765625 106.29296875 C8.4015625 106.25171875 -0.6734375 106.21046875 -10.0234375 106.16796875 C-10.0234375 71.51796875 -10.0234375 36.86796875 -10.0234375 1.16796875 C-6.86412656 -0.41168672 -3.46925297 0.00540201 0 0 Z M11.9765625 20.16796875 C11.9765625 42.27796875 11.9765625 64.38796875 11.9765625 87.16796875 C34.74619798 88.67081821 34.74619798 88.67081821 52.7890625 81.48046875 C61.49591163 72.27608538 62.83832016 60.34586224 62.9765625 48.16796875 C62.5160365 40.13434852 60.10044787 33.43426565 54.9765625 27.16796875 C42.91867525 16.74878017 27.22241053 20.16796875 11.9765625 20.16796875 Z " fill="#ffffff" transform="translate(948.0234375,342.83203125)"/>
<path d="M0 0 C9.14934536 7.60935653 14.34117632 18.86402933 16.08203125 30.54296875 C17.63032674 49.14372412 17.42920565 68.85284206 5.2421875 84.09375 C-2.81525614 92.8570808 -14.35653545 97.43781838 -26.11962891 98.11108398 C-44.60462636 98.73961868 -61.21356436 98.1130183 -75.6875 85.125 C-86.15006085 74.1684985 -89.6328125 57.6956118 -89.6328125 42.96875 C-88.9493483 28.59208055 -85.95200865 15.50781217 -76.3828125 4.34375 C-56.34946739 -12.95777532 -21.9144965 -15.34665037 0 0 Z M-59.6328125 18.96875 C-66.89824677 28.78540546 -67.6057629 40.10115741 -66.6328125 51.96875 C-64.75768761 61.33423866 -61.89150663 69.30041955 -53.8203125 74.78125 C-45.52009498 79.4800696 -35.88594853 80.47308051 -26.62890625 78.24609375 C-19.13196477 75.72671342 -13.85603466 72.54754693 -9.8828125 65.53125 C-4.37802497 53.45278416 -4.47400986 38.86344686 -8.48828125 26.2890625 C-11.93347939 18.8361849 -18.24378886 13.72435946 -25.7578125 10.71875 C-37.97321824 8.35447792 -50.60115604 9.73594306 -59.6328125 18.96875 Z " fill="#ffffff" transform="translate(1722.6328125,352.03125)"/>
<path d="M0 0 C0.67007584 -0.00175232 1.34015167 -0.00350464 2.03053284 -0.00531006 C4.25019911 -0.00971897 6.46978601 -0.00679396 8.68945312 -0.00341797 C10.22880061 -0.00409128 11.768148 -0.00506154 13.30749512 -0.00631714 C16.53557344 -0.00779281 19.76362411 -0.00564374 22.99169922 -0.00097656 C27.13469391 0.00472065 31.27762383 0.00144095 35.42061615 -0.00454903 C38.59983816 -0.00815816 41.77904475 -0.00701443 44.95826721 -0.00442123 C46.48612984 -0.00375294 48.01399385 -0.00457699 49.54185486 -0.00690079 C51.67507653 -0.00943307 53.80819248 -0.00557858 55.94140625 0 C57.15671021 0.00079559 58.37201416 0.00159119 59.62414551 0.00241089 C62.47070312 0.12939453 62.47070312 0.12939453 64.47070312 1.12939453 C64.47070312 7.39939453 64.47070312 13.66939453 64.47070312 20.12939453 C47.64070312 20.12939453 30.81070313 20.12939453 13.47070312 20.12939453 C13.47070312 27.71939453 13.47070312 35.30939453 13.47070312 43.12939453 C29.64070312 43.12939453 45.81070313 43.12939453 62.47070312 43.12939453 C62.47070312 49.72939453 62.47070312 56.32939453 62.47070312 63.12939453 C45.97070312 63.12939453 29.47070312 63.12939453 12.47070312 63.12939453 C12.47070312 71.04939453 12.47070312 78.96939453 12.47070312 87.12939453 C29.96070313 87.12939453 47.45070313 87.12939453 65.47070312 87.12939453 C65.47070312 93.39939453 65.47070312 99.66939453 65.47070312 106.12939453 C41.05070313 106.12939453 16.63070312 106.12939453 -8.52929688 106.12939453 C-8.52929688 71.47939453 -8.52929688 36.82939453 -8.52929688 1.12939453 C-5.66111234 -0.30469773 -3.20559085 0.00209853 0 0 Z " fill="#ffffff" transform="translate(621.529296875,342.87060546875)"/>
<path d="M0 0 C1 1 1 1 1.11352539 2.94946289 C1.10567017 4.1984436 1.10567017 4.1984436 1.09765625 5.47265625 C1.09282227 6.82133789 1.09282227 6.82133789 1.08789062 8.19726562 C1.07532227 9.61555664 1.07532227 9.61555664 1.0625 11.0625 C1.05798828 12.01189453 1.05347656 12.96128906 1.04882812 13.93945312 C1.0370011 16.29303065 1.02052025 18.64648477 1 21 C0.43804932 20.87447754 -0.12390137 20.74895508 -0.70288086 20.61962891 C-3.13478361 20.07761676 -5.56739935 19.53887027 -8 19 C-9.25941406 18.71898437 -10.51882813 18.43796875 -11.81640625 18.1484375 C-24.43860389 15.54239461 -38.8893836 13.34980045 -51 19 C-53.97947611 21.09739437 -55.61578321 23.35335661 -56.46484375 26.9921875 C-56.73845602 30.52912657 -56.16644159 32.73962975 -54.26953125 35.70703125 C-49.17803668 39.27776878 -44.13258154 38.65252965 -38.0625 38.625 C-22.85786027 38.88807 -10.89824463 39.10175537 0.3125 50.3125 C5.9646224 59.31402827 6.12056538 69.45656293 4.375 79.75 C2.23178685 87.80552529 -2.59236117 93.50636344 -9.6328125 97.78515625 C-27.18319764 106.79203707 -51.41962679 104.66649926 -70 100 C-71.98 99.34 -73.96 98.68 -76 98 C-76 91.73 -76 85.46 -76 79 C-72.03861254 77.67953751 -69.1957992 78.79808874 -65.3125 79.875 C-52.77428619 83.3085052 -34.95736296 86.63675649 -23 80 C-19.22334785 76.88426197 -18.10770898 75.09504129 -17.625 70.1875 C-17.65747543 66.61520314 -17.94832119 66.06564606 -20.3125 63.0625 C-24.33880062 59.97254836 -27.30695007 59.86594498 -32.25 59.7890625 C-34.12365234 59.74652344 -34.12365234 59.74652344 -36.03515625 59.703125 C-38.64700357 59.65166003 -41.25900008 59.60721392 -43.87109375 59.5703125 C-53.59296639 59.33149475 -64.44748961 58.84995128 -72 52 C-79.0496028 42.0407734 -80.09486801 32.97245283 -79 21 C-77.12542546 13.13261463 -73.46352633 7.46183296 -66.75 2.9375 C-46.85860292 -8.20283382 -21.21834441 -5.74279104 0 0 Z " fill="#ffffff" transform="translate(1455,347)"/>
<path d="M0 0 C1.28874023 -0.03673828 1.28874023 -0.03673828 2.60351562 -0.07421875 C3.43431641 -0.07808594 4.26511719 -0.08195312 5.12109375 -0.0859375 C5.87704834 -0.09415527 6.63300293 -0.10237305 7.41186523 -0.11083984 C10.597314 0.60876999 11.54637037 1.78502224 13.5625 4.375 C15.18445588 7.43070947 16.52712769 10.58741249 17.87109375 13.7734375 C18.27426315 14.70781143 18.67743256 15.64218536 19.09281921 16.60487366 C20.40414031 19.64950089 21.70206426 22.69964564 23 25.75 C23.90320288 27.85334609 24.80734203 29.95629038 25.71240234 32.05883789 C27.51036976 36.23890026 29.30354991 40.42095933 31.09228516 44.60498047 C33.74273695 50.80198133 36.41941032 56.98734736 39.10498047 63.16918945 C40.64299311 66.71003528 42.17529252 70.25331161 43.70703125 73.796875 C45.64519085 78.27352671 47.60268844 82.74107201 49.57421875 87.203125 C50.28457275 88.81682983 50.28457275 88.81682983 51.00927734 90.46313477 C51.89168706 92.46567165 52.77843203 94.46630636 53.67041016 96.46459961 C54.05374512 97.33608643 54.43708008 98.20757324 54.83203125 99.10546875 C55.16823486 99.86239014 55.50443848 100.61931152 55.85083008 101.39916992 C56.5625 103.375 56.5625 103.375 56.5625 106.375 C48.6425 106.375 40.7225 106.375 32.5625 106.375 C27.1175 93.01 27.1175 93.01 21.5625 79.375 C10.3425 79.045 -0.8775 78.715 -12.4375 78.375 C-11.64393077 73.61358461 -10.78989252 70.38654417 -8.9375 66.0625 C-8.4940625 65.01449219 -8.050625 63.96648437 -7.59375 62.88671875 C-6.4375 60.375 -6.4375 60.375 -5.4375 59.375 C-4.09734779 59.21917697 -2.74991097 59.12455858 -1.40234375 59.05859375 C-0.59345703 59.01669922 0.21542969 58.97480469 1.04882812 58.93164062 C1.89896484 58.89232422 2.74910156 58.85300781 3.625 58.8125 C4.47900391 58.76931641 5.33300781 58.72613281 6.21289062 58.68164062 C8.32922037 58.57523298 10.44583813 58.47458269 12.5625 58.375 C12.19898438 57.50697754 11.83546875 56.63895508 11.4609375 55.74462891 C10.11631109 52.52916171 8.77485635 49.31240999 7.43554688 46.09472656 C6.8547869 44.70129239 6.27276074 43.30838525 5.68945312 41.91601562 C4.85214617 39.91673168 4.01938311 37.91560824 3.1875 35.9140625 C2.68476562 34.70959473 2.18203125 33.50512695 1.6640625 32.26416016 C0.5625 29.375 0.5625 29.375 0.5625 27.375 C-0.0975 27.375 -0.7575 27.375 -1.4375 27.375 C-1.59677979 28.38723633 -1.59677979 28.38723633 -1.75927734 29.41992188 C-2.57956154 32.99397513 -3.89291401 36.27871187 -5.2890625 39.65625 C-5.58025467 40.37093948 -5.87144684 41.08562897 -6.17146301 41.82197571 C-7.13107542 44.17466804 -8.09680134 46.52480011 -9.0625 48.875 C-9.73101332 50.51112267 -10.39905674 52.14743741 -11.06665039 53.78393555 C-12.46629817 57.21395545 -13.86801128 60.64312113 -15.27099609 64.07177734 C-18.48954459 71.9431583 -21.6793452 79.82619555 -24.87103271 87.70849609 C-26.47409746 91.66679616 -28.07890759 95.6243883 -29.68359375 99.58203125 C-31.04677734 102.94455078 -31.04677734 102.94455078 -32.4375 106.375 C-40.0275 106.375 -47.6175 106.375 -55.4375 106.375 C-52.06118337 96.24605011 -52.06118337 96.24605011 -50.00390625 91.3671875 C-49.52969238 90.23877441 -49.05547852 89.11036133 -48.56689453 87.94775391 C-48.04469019 86.71512951 -47.52238864 85.4825463 -47 84.25 C-46.44363518 82.93026534 -45.88749039 81.61043789 -45.33154297 80.29052734 C-41.70027358 71.68016537 -38.03876176 63.08261444 -34.37890625 54.484375 C-33.94097244 53.45551178 -33.50303864 52.42664856 -33.05183411 51.36660767 C-30.87224642 46.24715452 -28.69082993 41.12849286 -26.50610352 36.01123047 C-26.09519974 35.0477066 -25.68429596 34.08418274 -25.26094055 33.09146118 C-24.45468344 31.20105572 -23.64748287 29.31105233 -22.83927917 27.42147827 C-20.97503928 23.04937768 -19.14232045 18.66949986 -17.38574219 14.25292969 C-17.06914642 13.46163666 -16.75255066 12.67034363 -16.42636108 11.85507202 C-15.84247109 10.38769984 -15.26641479 8.9171756 -14.69985962 7.44302368 C-11.59766488 -0.34471038 -7.49121645 0.01118927 0 0 Z " fill="#ffffff" transform="translate(810.4375,342.625)"/>
<path d="M0 0 C0.96292969 -0.01611328 1.92585938 -0.03222656 2.91796875 -0.04882812 C3.84222656 -0.04947266 4.76648437 -0.05011719 5.71875 -0.05078125 C6.9862207 -0.05525269 6.9862207 -0.05525269 8.27929688 -0.05981445 C11.07091381 0.40821719 11.69387087 1.16632184 13.5 3.3125 C14.60417175 5.51280212 14.60417175 5.51280212 15.64135742 8.10913086 C16.03574509 9.08542953 16.43013275 10.06172821 16.83647156 11.06761169 C17.46462517 12.65642906 17.46462517 12.65642906 18.10546875 14.27734375 C18.54836746 15.37985977 18.99126617 16.48237579 19.44758606 17.61830139 C20.86812587 21.1593533 22.27794908 24.70456147 23.6875 28.25 C24.61713437 30.5725476 25.54746573 32.89481636 26.47851562 35.21679688 C28.73364393 40.84558159 30.98035726 46.47767568 33.22406006 52.11102295 C35.20330898 57.07718146 37.18941375 62.0405917 39.17578125 67.00390625 C39.82723975 68.63223887 40.47868945 70.260575 41.13012695 71.88891602 C41.58218506 73.01869873 42.03424316 74.14848145 42.5 75.3125 C44.26256324 72.66865514 45.35602703 70.42466525 46.52783203 67.5 C46.92229523 66.52047363 47.31675842 65.54094727 47.72317505 64.53173828 C48.14710541 63.46938965 48.57103577 62.40704102 49.0078125 61.3125 C49.67428299 59.65516846 49.67428299 59.65516846 50.35421753 57.96435547 C51.78102217 54.41501633 53.20329096 50.86388294 54.625 47.3125 C58.2358076 38.30675049 61.85398809 29.30406341 65.5 20.3125 C65.90375854 19.31669922 66.30751709 18.32089844 66.72351074 17.29492188 C67.82553101 14.58890738 68.93772526 11.88737531 70.0546875 9.1875 C70.37760773 8.39359863 70.70052795 7.59969727 71.03323364 6.78173828 C73.26851039 1.4282448 73.26851039 1.4282448 75.5 0.3125 C77.07062514 0.21677423 78.6452118 0.1817595 80.21875 0.1796875 C81.15074219 0.17839844 82.08273437 0.17710937 83.04296875 0.17578125 C84.01878906 0.17964844 84.99460937 0.18351562 86 0.1875 C86.97582031 0.18363281 87.95164062 0.17976563 88.95703125 0.17578125 C90.35501953 0.17771484 90.35501953 0.17771484 91.78125 0.1796875 C92.63783203 0.18081543 93.49441406 0.18194336 94.37695312 0.18310547 C96.5 0.3125 96.5 0.3125 98.5 1.3125 C97.91185266 6.86481143 95.91383636 11.35272363 93.625 16.37109375 C93.22834137 17.25619629 92.83168274 18.14129883 92.42300415 19.05322266 C91.56734539 20.96073612 90.70856375 22.8668512 89.84698486 24.771698 C87.55873562 29.83121832 85.29312998 34.90088553 83.0234375 39.96875 C82.56101654 40.99939072 82.09859558 42.03003143 81.62216187 43.09190369 C77.05403873 53.28131481 72.57747649 63.5096319 68.125 73.75 C67.4362078 75.33195417 66.747406 76.91390416 66.05859375 78.49584961 C62.36835841 86.97539052 62.36835841 86.97539052 58.72949219 95.47705078 C58.4515683 96.13101334 58.17364441 96.78497589 57.88729858 97.45875549 C57.13664158 99.22814086 56.38924701 100.99890931 55.64208984 102.76977539 C54.5 105.3125 54.5 105.3125 53.5 106.3125 C51.71928754 106.39976223 49.9351686 106.41949041 48.15234375 106.41015625 C47.07275391 106.40693359 45.99316406 106.40371094 44.88085938 106.40039062 C43.74455078 106.39201172 42.60824219 106.38363281 41.4375 106.375 C40.29732422 106.37048828 39.15714844 106.36597656 37.98242188 106.36132812 C35.15489649 106.34949747 32.3274736 106.3330141 29.5 106.3125 C29.05422607 105.24555908 28.60845215 104.17861816 28.14916992 103.0793457 C26.39743483 98.88735231 24.64476828 94.69574889 22.89172363 90.50430298 C22.08862293 88.58408634 21.28564449 86.66381855 20.48278809 84.74349976 C15.77500944 73.48510881 11.05063315 62.23410294 6.28515625 51 C5.86151291 50.0004277 5.43786957 49.00085541 5.00138855 47.97099304 C2.96214173 43.15971746 0.91979996 38.34980361 -1.12817383 33.54223633 C-5.51196498 23.22063882 -9.67349012 12.85399552 -13.5 2.3125 C-9.12760012 -0.60243325 -5.14197939 -0.01720877 0 0 Z " fill="#ffffff" transform="translate(1110.5,342.6875)"/>
<path d="M0 0 C0.79664063 -0.00128906 1.59328125 -0.00257813 2.4140625 -0.00390625 C3.24679687 -0.00003906 4.07953125 0.00382812 4.9375 0.0078125 C6.18660156 0.00201172 6.18660156 0.00201172 7.4609375 -0.00390625 C8.25757813 -0.00261719 9.05421875 -0.00132812 9.875 0 C10.60589844 0.00112793 11.33679688 0.00225586 12.08984375 0.00341797 C13.9375 0.1328125 13.9375 0.1328125 15.9375 1.1328125 C15.9375 29.5128125 15.9375 57.8928125 15.9375 87.1328125 C29.4675 87.1328125 42.9975 87.1328125 56.9375 87.1328125 C56.9375 93.4028125 56.9375 99.6728125 56.9375 106.1328125 C36.1475 106.1328125 15.3575 106.1328125 -6.0625 106.1328125 C-6.0625 71.4828125 -6.0625 36.8328125 -6.0625 1.1328125 C-3.79176921 -0.0025529 -2.51966721 0.00388838 0 0 Z " fill="#ffffff" transform="translate(479.0625,342.8671875)"/>
<path d="M0 0 C0.79664063 -0.00128906 1.59328125 -0.00257813 2.4140625 -0.00390625 C3.24679687 -0.00003906 4.07953125 0.00382812 4.9375 0.0078125 C6.18660156 0.00201172 6.18660156 0.00201172 7.4609375 -0.00390625 C8.25757813 -0.00261719 9.05421875 -0.00132812 9.875 0 C10.60589844 0.00112793 11.33679687 0.00225586 12.08984375 0.00341797 C13.9375 0.1328125 13.9375 0.1328125 15.9375 1.1328125 C15.9375 35.7828125 15.9375 70.4328125 15.9375 106.1328125 C8.6775 106.1328125 1.4175 106.1328125 -6.0625 106.1328125 C-6.0625 71.4828125 -6.0625 36.8328125 -6.0625 1.1328125 C-3.79176921 -0.0025529 -2.51966721 0.00388838 0 0 Z " fill="#ffffff" transform="translate(1541.0625,342.8671875)"/>
<path d="M0 0 C0.79664063 -0.00128906 1.59328125 -0.00257813 2.4140625 -0.00390625 C3.24679687 -0.00003906 4.07953125 0.00382812 4.9375 0.0078125 C6.18660156 0.00201172 6.18660156 0.00201172 7.4609375 -0.00390625 C8.25757813 -0.00261719 9.05421875 -0.00132812 9.875 0 C10.60589844 0.00112793 11.33679687 0.00225586 12.08984375 0.00341797 C13.9375 0.1328125 13.9375 0.1328125 15.9375 1.1328125 C15.9375 35.7828125 15.9375 70.4328125 15.9375 106.1328125 C8.6775 106.1328125 1.4175 106.1328125 -6.0625 106.1328125 C-6.0625 71.4828125 -6.0625 36.8328125 -6.0625 1.1328125 C-3.79176921 -0.0025529 -2.51966721 0.00388838 0 0 Z " fill="#ffffff" transform="translate(1284.0625,342.8671875)"/>
<path d="M0 0 C7.18680868 5.74944694 11.03428915 11.68804925 12.12890625 20.91796875 C12.49364656 29.2599327 10.18803783 35.652757 5.625 42.5625 C-1.3675216 49.24424286 -8.66656593 51.65039632 -18.17578125 51.5234375 C-25.98188568 50.81471207 -32.49264954 48.04175207 -37.75390625 42.1875 C-43.25206463 34.75674644 -45.03977322 27.40893619 -44.1875 18.25 C-42.24500178 10.57990702 -38.57611235 3.96206381 -31.75390625 -0.25390625 C-20.70531346 -6.01624811 -10.94615504 -6.00965375 0 0 Z M-30.1875 17.25 C-31.81635929 20.50771859 -31.72994959 23.73024188 -31.1875 27.25 C-29.41495544 31.55147667 -27.19892147 34.51442075 -23.4375 37.25 C-17.7875988 38.98843114 -13.24656728 39.26010848 -7.875 36.625 C-4.36402843 33.52228094 -1.65725299 30.87678201 -0.8046875 26.109375 C-0.56706719 21.45201691 -1.21303579 17.68579648 -3.7890625 13.7578125 C-7.19960026 10.08052876 -11.43357883 8.49554896 -16.3125 7.8125 C-23.0088205 8.83150529 -26.31423367 12.04875664 -30.1875 17.25 Z " fill="#ffffff" transform="translate(261.1875,425.75)"/>
<path d="M0 0 C2.64 0 5.28 0 8 0 C8.99 4.62 9.98 9.24 11 14 C12.65 9.38 14.3 4.76 16 0 C18.64 0 21.28 0 24 0 C26.475 6.435 26.475 6.435 29 13 C29.99 8.71 30.98 4.42 32 0 C34.31 0 36.62 0 39 0 C40.45467812 2.90935623 39.63627124 4.85537426 39.0390625 8.03125 C38.70261719 9.83529297 38.70261719 9.83529297 38.359375 11.67578125 C38.11703125 12.93777344 37.8746875 14.19976562 37.625 15.5 C37.39039063 16.76199219 37.15578125 18.02398437 36.9140625 19.32421875 C35.14265544 28.71468911 35.14265544 28.71468911 34 31 C31.36 31 28.72 31 26 31 C24.02 25.39 22.04 19.78 20 14 C19.21625 15.876875 18.4325 17.75375 17.625 19.6875 C17.18414063 20.74324219 16.74328125 21.79898438 16.2890625 22.88671875 C15.17242538 25.58356657 14.07708199 28.28716264 13 31 C10.36 31 7.72 31 5 31 C3.50515574 25.30009383 2.3300729 19.62577538 1.375 13.8125 C1.2409375 13.03197266 1.106875 12.25144531 0.96875 11.44726562 C0.32743391 7.58955301 -0.17312195 3.9267207 0 0 Z " fill="#ffffff" transform="translate(667,492)"/>
<path d="M0 0 C2.64 0 5.28 0 8 0 C10.64 5.94 13.28 11.88 16 18 C18.21639549 13.19988508 18.21639549 13.19988508 20.42724609 8.3972168 C21.80011356 5.43957069 23.18794037 2.71808945 25 0 C27.31 0 29.62 0 32 0 C32 10.23 32 20.46 32 31 C29.69 31 27.38 31 25 31 C24.505 26.05 24.505 26.05 24 21 C22.68 24.3 21.36 27.6 20 31 C17.36 31 14.72 31 12 31 C10.68 27.7 9.36 24.4 8 21 C7.67 24.3 7.34 27.6 7 31 C4.36 31 1.72 31 -1 31 C-1.02465622 26.74585377 -1.04283899 22.49174502 -1.05493164 18.23754883 C-1.05997101 16.78929927 -1.06680253 15.34105483 -1.07543945 13.89282227 C-1.08752247 11.81525412 -1.09323211 9.73775303 -1.09765625 7.66015625 C-1.10289307 6.40855713 -1.10812988 5.15695801 -1.11352539 3.86743164 C-1 1 -1 1 0 0 Z " fill="#ffffff" transform="translate(989,492)"/>
<path d="M0 0 C4.28412211 4.39686217 5.52766531 8.39347161 5.8125 14.375 C5.6220222 19.37313739 4.6833832 23.57308601 1.375 27.4375 C-4.4409383 31.18442771 -10.70086137 30.98267839 -17.3125 29.75 C-21.20214513 28.20881986 -22.48526358 27.00372737 -24.625 23.4375 C-27.36110543 16.79267253 -27.11400794 10.12083543 -24.4375 3.5 C-18.42865543 -3.33765072 -7.95874324 -3.43049277 0 0 Z M-16 6.875 C-18.4026838 10.66384754 -18.40193727 14.07223391 -17.625 18.4375 C-16.24783334 21.14857713 -16.24783334 21.14857713 -13.625 22.4375 C-10.19317525 22.85895216 -7.80952459 23.1087306 -4.75 21.375 C-3.0007189 18.36234922 -2.74254037 15.90494099 -2.625 12.4375 C-4.17295867 8.11356226 -4.17295867 8.11356226 -7.625 5.4375 C-11.09000939 5.06086855 -12.98848003 5.05223791 -16 6.875 Z " fill="#ffffff" transform="translate(1058.625,493.5625)"/>
<path d="M0 0 C4.28412211 4.39686217 5.52766531 8.39347161 5.8125 14.375 C5.6220222 19.37313739 4.6833832 23.57308601 1.375 27.4375 C-4.4409383 31.18442771 -10.70086137 30.98267839 -17.3125 29.75 C-21.20214513 28.20881986 -22.48526358 27.00372737 -24.625 23.4375 C-27.36110543 16.79267253 -27.11400794 10.12083543 -24.4375 3.5 C-18.42865543 -3.33765072 -7.95874324 -3.43049277 0 0 Z M-16 6.875 C-18.4026838 10.66384754 -18.40193727 14.07223391 -17.625 18.4375 C-16.24783334 21.14857713 -16.24783334 21.14857713 -13.625 22.4375 C-10.19317525 22.85895216 -7.80952459 23.1087306 -4.75 21.375 C-3.0007189 18.36234922 -2.74254037 15.90494099 -2.625 12.4375 C-4.17295867 8.11356226 -4.17295867 8.11356226 -7.625 5.4375 C-11.09000939 5.06086855 -12.98848003 5.05223791 -16 6.875 Z " fill="#ffffff" transform="translate(955.625,493.5625)"/>
<path d="M0 0 C4.28412211 4.39686217 5.52766531 8.39347161 5.8125 14.375 C5.6220222 19.37313739 4.6833832 23.57308601 1.375 27.4375 C-4.4409383 31.18442771 -10.70086137 30.98267839 -17.3125 29.75 C-21.20214513 28.20881986 -22.48526358 27.00372737 -24.625 23.4375 C-27.36110543 16.79267253 -27.11400794 10.12083543 -24.4375 3.5 C-18.42865543 -3.33765072 -7.95874324 -3.43049277 0 0 Z M-16 6.875 C-18.4026838 10.66384754 -18.40193727 14.07223391 -17.625 18.4375 C-16.24783334 21.14857713 -16.24783334 21.14857713 -13.625 22.4375 C-10.19317525 22.85895216 -7.80952459 23.1087306 -4.75 21.375 C-3.0007189 18.36234922 -2.74254037 15.90494099 -2.625 12.4375 C-4.17295867 8.11356226 -4.17295867 8.11356226 -7.625 5.4375 C-11.09000939 5.06086855 -12.98848003 5.05223791 -16 6.875 Z " fill="#ffffff" transform="translate(857.625,493.5625)"/>
<path d="M0 0 C4.28412211 4.39686217 5.52766531 8.39347161 5.8125 14.375 C5.6220222 19.37313739 4.6833832 23.57308601 1.375 27.4375 C-4.4409383 31.18442771 -10.70086137 30.98267839 -17.3125 29.75 C-21.20214513 28.20881986 -22.48526358 27.00372737 -24.625 23.4375 C-27.36110543 16.79267253 -27.11400794 10.12083543 -24.4375 3.5 C-18.42865543 -3.33765072 -7.95874324 -3.43049277 0 0 Z M-16 6.875 C-18.4026838 10.66384754 -18.40193727 14.07223391 -17.625 18.4375 C-16.24783334 21.14857713 -16.24783334 21.14857713 -13.625 22.4375 C-10.19317525 22.85895216 -7.80952459 23.1087306 -4.75 21.375 C-3.0007189 18.36234922 -2.74254037 15.90494099 -2.625 12.4375 C-4.17295867 8.11356226 -4.17295867 8.11356226 -7.625 5.4375 C-11.09000939 5.06086855 -12.98848003 5.05223791 -16 6.875 Z " fill="#ffffff" transform="translate(653.625,493.5625)"/>
<path d="M0 0 C0.80373047 -0.020625 1.60746094 -0.04125 2.43554688 -0.0625 C7.49523115 -0.09559687 10.91985061 0.46392145 15.3125 3.25 C19.21740779 7.42421177 19.62191518 11.46149577 19.52734375 17.09375 C19.04076061 21.97727531 17.60245774 25.77279033 14.375 29.46875 C9.81766347 32.11944574 5.66722142 31.68045367 0.5 31.5 C-0.47904297 31.48195313 -1.45808594 31.46390625 -2.46679688 31.4453125 C-4.87470771 31.39832887 -7.28059335 31.33265694 -9.6875 31.25 C-9.71215622 26.99585377 -9.73033899 22.74174502 -9.74243164 18.48754883 C-9.74747101 17.03929927 -9.75430253 15.59105483 -9.76293945 14.14282227 C-9.77502247 12.06525412 -9.78073211 9.98775303 -9.78515625 7.91015625 C-9.79039307 6.65855713 -9.79562988 5.40695801 -9.80102539 4.11743164 C-9.56933767 -1.73455167 -4.69248541 0.02939693 0 0 Z M-1.6875 7.25 C-1.6875 12.86 -1.6875 18.47 -1.6875 24.25 C-0.264375 24.311875 1.15875 24.37375 2.625 24.4375 C3.42550781 24.47230469 4.22601562 24.50710938 5.05078125 24.54296875 C7.36090049 24.42729754 7.36090049 24.42729754 9.0546875 22.984375 C11.20807125 20.01511293 11.31976154 16.84446044 11.3125 13.25 C10.22679716 9.81194102 9.41862788 9.32075192 6.3125 7.25 C3.6725 7.25 1.0325 7.25 -1.6875 7.25 Z " fill="#ffffff" transform="translate(900.6875,491.75)"/>
<path d="M0 0 C1.28970703 -0.05607422 1.28970703 -0.05607422 2.60546875 -0.11328125 C7.09299315 -0.17551194 9.11683208 -0.09463982 12.8203125 2.65234375 C14.93073648 5.63000674 15.46610321 7.71212022 15.2578125 11.37109375 C14.36450664 14.89621611 12.28938401 16.83561599 9.75 19.375 C10.2553125 19.98988281 10.760625 20.60476563 11.28125 21.23828125 C11.9309375 22.04652344 12.580625 22.85476563 13.25 23.6875 C13.8996875 24.48800781 14.549375 25.28851562 15.21875 26.11328125 C16.75 28.375 16.75 28.375 16.75 31.375 C13.17724744 32.16569114 10.29507562 32.37424936 6.75 31.375 C2.72120286 27.26253774 -1.03265871 22.35740542 -1.4609375 16.48046875 C-1.39132812 15.78566406 -1.32171875 15.09085937 -1.25 14.375 C1.06 13.715 3.37 13.055 5.75 12.375 C6.08 11.055 6.41 9.735 6.75 8.375 C3.78 8.045 0.81 7.715 -2.25 7.375 C-2.25 15.295 -2.25 23.215 -2.25 31.375 C-4.89 31.375 -7.53 31.375 -10.25 31.375 C-10.27465622 27.12085377 -10.29283899 22.86674502 -10.30493164 18.61254883 C-10.30997101 17.16429927 -10.31680253 15.71605483 -10.32543945 14.26782227 C-10.33752247 12.19025412 -10.34323211 10.11275303 -10.34765625 8.03515625 C-10.35289307 6.78355713 -10.35812988 5.53195801 -10.36352539 4.24243164 C-10.13095567 -1.63182949 -4.76940875 0.07726583 0 0 Z " fill="#ffffff" transform="translate(1084.25,491.625)"/>
<path d="M0 0 C1.28970703 -0.05607422 1.28970703 -0.05607422 2.60546875 -0.11328125 C7.09299315 -0.17551194 9.11683208 -0.09463982 12.8203125 2.65234375 C14.93073648 5.63000674 15.46610321 7.71212022 15.2578125 11.37109375 C14.36450664 14.89621611 12.28938401 16.83561599 9.75 19.375 C10.2553125 19.98988281 10.760625 20.60476563 11.28125 21.23828125 C11.9309375 22.04652344 12.580625 22.85476563 13.25 23.6875 C13.8996875 24.48800781 14.549375 25.28851562 15.21875 26.11328125 C16.75 28.375 16.75 28.375 16.75 31.375 C13.17724744 32.16569114 10.29507562 32.37424936 6.75 31.375 C2.72120286 27.26253774 -1.03265871 22.35740542 -1.4609375 16.48046875 C-1.39132812 15.78566406 -1.32171875 15.09085937 -1.25 14.375 C1.06 13.715 3.37 13.055 5.75 12.375 C6.08 11.055 6.41 9.735 6.75 8.375 C3.78 8.045 0.81 7.715 -2.25 7.375 C-2.25 15.295 -2.25 23.215 -2.25 31.375 C-4.89 31.375 -7.53 31.375 -10.25 31.375 C-10.27465622 27.12085377 -10.29283899 22.86674502 -10.30493164 18.61254883 C-10.30997101 17.16429927 -10.31680253 15.71605483 -10.32543945 14.26782227 C-10.33752247 12.19025412 -10.34323211 10.11275303 -10.34765625 8.03515625 C-10.35289307 6.78355713 -10.35812988 5.53195801 -10.36352539 4.24243164 C-10.13095567 -1.63182949 -4.76940875 0.07726583 0 0 Z " fill="#ffffff" transform="translate(759.25,491.625)"/>
<path d="M0 0 C1.134375 0.020625 2.26875 0.04125 3.4375 0.0625 C3.4375 4.0225 3.4375 7.9825 3.4375 12.0625 C7.3975 12.0625 11.3575 12.0625 15.4375 12.0625 C15.4375 8.1025 15.4375 4.1425 15.4375 0.0625 C18.0775 0.0625 20.7175 0.0625 23.4375 0.0625 C23.4375 10.2925 23.4375 20.5225 23.4375 31.0625 C20.7975 31.0625 18.1575 31.0625 15.4375 31.0625 C15.4375 27.1025 15.4375 23.1425 15.4375 19.0625 C11.4775 19.0625 7.5175 19.0625 3.4375 19.0625 C3.4375 23.0225 3.4375 26.9825 3.4375 31.0625 C0.7975 31.0625 -1.8425 31.0625 -4.5625 31.0625 C-4.58715622 26.80835377 -4.60533899 22.55424502 -4.61743164 18.30004883 C-4.62247101 16.85179927 -4.62930253 15.40355483 -4.63793945 13.95532227 C-4.65002247 11.87775412 -4.65573211 9.80025303 -4.66015625 7.72265625 C-4.66539307 6.47105713 -4.67062988 5.21945801 -4.67602539 3.92993164 C-4.50846074 -0.30242701 -4.35818563 0.0764594 0 0 Z " fill="#ffffff" transform="translate(508.5625,491.9375)"/>
<path d="M0 0 C0.91644287 0.00523682 1.83288574 0.01047363 2.77709961 0.01586914 C3.76645508 0.0190918 4.75581055 0.02231445 5.77514648 0.02563477 C6.81606445 0.03401367 7.85698242 0.04239258 8.92944336 0.05102539 C10.49662109 0.05779297 10.49662109 0.05779297 12.09545898 0.06469727 C14.68600996 0.07652627 17.27644895 0.0930085 19.86694336 0.11352539 C19.86694336 2.42352539 19.86694336 4.73352539 19.86694336 7.11352539 C14.91694336 7.11352539 9.96694336 7.11352539 4.86694336 7.11352539 C4.86694336 8.76352539 4.86694336 10.41352539 4.86694336 12.11352539 C9.48694336 12.11352539 14.10694336 12.11352539 18.86694336 12.11352539 C18.86694336 14.42352539 18.86694336 16.73352539 18.86694336 19.11352539 C14.24694336 19.11352539 9.62694336 19.11352539 4.86694336 19.11352539 C4.86694336 20.76352539 4.86694336 22.41352539 4.86694336 24.11352539 C9.81694336 24.11352539 14.76694336 24.11352539 19.86694336 24.11352539 C19.86694336 26.42352539 19.86694336 28.73352539 19.86694336 31.11352539 C12.27694336 31.11352539 4.68694336 31.11352539 -3.13305664 31.11352539 C-3.15596984 26.85930825 -3.17589553 22.60530383 -3.18798828 18.35107422 C-3.19302765 16.90282467 -3.19985917 15.45458022 -3.20849609 14.00634766 C-3.22057911 11.92877951 -3.22628875 9.85127842 -3.23071289 7.77368164 C-3.23594971 6.52208252 -3.24118652 5.2704834 -3.24658203 3.98095703 C-3.0954933 0.16474813 -3.0954933 0.16474813 0 0 Z " fill="#ffffff" transform="translate(1112.133056640625,491.886474609375)"/>
<path d="M0 0 C0.91644287 0.00523682 1.83288574 0.01047363 2.77709961 0.01586914 C3.76645508 0.0190918 4.75581055 0.02231445 5.77514648 0.02563477 C6.81606445 0.03401367 7.85698242 0.04239258 8.92944336 0.05102539 C10.49662109 0.05779297 10.49662109 0.05779297 12.09545898 0.06469727 C14.68600996 0.07652627 17.27644895 0.0930085 19.86694336 0.11352539 C19.86694336 2.42352539 19.86694336 4.73352539 19.86694336 7.11352539 C14.91694336 7.11352539 9.96694336 7.11352539 4.86694336 7.11352539 C4.86694336 8.76352539 4.86694336 10.41352539 4.86694336 12.11352539 C9.48694336 12.11352539 14.10694336 12.11352539 18.86694336 12.11352539 C18.86694336 14.42352539 18.86694336 16.73352539 18.86694336 19.11352539 C14.24694336 19.11352539 9.62694336 19.11352539 4.86694336 19.11352539 C4.86694336 20.76352539 4.86694336 22.41352539 4.86694336 24.11352539 C9.81694336 24.11352539 14.76694336 24.11352539 19.86694336 24.11352539 C19.86694336 26.42352539 19.86694336 28.73352539 19.86694336 31.11352539 C12.27694336 31.11352539 4.68694336 31.11352539 -3.13305664 31.11352539 C-3.15596984 26.85930825 -3.17589553 22.60530383 -3.18798828 18.35107422 C-3.19302765 16.90282467 -3.19985917 15.45458022 -3.20849609 14.00634766 C-3.22057911 11.92877951 -3.22628875 9.85127842 -3.23071289 7.77368164 C-3.23594971 6.52208252 -3.24118652 5.2704834 -3.24658203 3.98095703 C-3.0954933 0.16474813 -3.0954933 0.16474813 0 0 Z " fill="#ffffff" transform="translate(719.133056640625,491.886474609375)"/>
<path d="M0 0 C0.91644287 0.00523682 1.83288574 0.01047363 2.77709961 0.01586914 C3.76645508 0.0190918 4.75581055 0.02231445 5.77514648 0.02563477 C6.81606445 0.03401367 7.85698242 0.04239258 8.92944336 0.05102539 C10.49662109 0.05779297 10.49662109 0.05779297 12.09545898 0.06469727 C14.68600996 0.07652627 17.27644895 0.0930085 19.86694336 0.11352539 C19.86694336 2.42352539 19.86694336 4.73352539 19.86694336 7.11352539 C14.91694336 7.11352539 9.96694336 7.11352539 4.86694336 7.11352539 C4.86694336 8.76352539 4.86694336 10.41352539 4.86694336 12.11352539 C9.48694336 12.11352539 14.10694336 12.11352539 18.86694336 12.11352539 C18.86694336 14.42352539 18.86694336 16.73352539 18.86694336 19.11352539 C14.24694336 19.11352539 9.62694336 19.11352539 4.86694336 19.11352539 C4.86694336 20.76352539 4.86694336 22.41352539 4.86694336 24.11352539 C9.81694336 24.11352539 14.76694336 24.11352539 19.86694336 24.11352539 C19.86694336 26.42352539 19.86694336 28.73352539 19.86694336 31.11352539 C12.27694336 31.11352539 4.68694336 31.11352539 -3.13305664 31.11352539 C-3.15596984 26.85930825 -3.17589553 22.60530383 -3.18798828 18.35107422 C-3.19302765 16.90282467 -3.19985917 15.45458022 -3.20849609 14.00634766 C-3.22057911 11.92877951 -3.22628875 9.85127842 -3.23071289 7.77368164 C-3.23594971 6.52208252 -3.24118652 5.2704834 -3.24658203 3.98095703 C-3.0954933 0.16474813 -3.0954933 0.16474813 0 0 Z " fill="#ffffff" transform="translate(547.133056640625,491.886474609375)"/>
<path d="M0 0 C1.23073242 -0.01836914 1.23073242 -0.01836914 2.48632812 -0.03710938 C3.67838867 -0.04000977 3.67838867 -0.04000977 4.89453125 -0.04296875 C5.6213208 -0.04707764 6.34811035 -0.05118652 7.09692383 -0.05541992 C9.52920914 0.22720578 11.10908516 0.90587146 13.1875 2.1875 C15.44915585 5.84922852 15.47172369 9.12663674 14.77734375 13.25390625 C13.71997298 16.7201217 12.13851327 18.15867838 9.1875 20.1875 C6.18498266 20.86143187 3.25989839 21.11386954 0.1875 21.1875 C-0.1425 19.2075 -0.4725 17.2275 -0.8125 15.1875 C0.156875 14.754375 1.12625 14.32125 2.125 13.875 C5.46481765 12.4860139 5.46481765 12.4860139 6.1875 9.1875 C4.5875 7.3875 4.5875 7.3875 -1.8125 7.1875 C-1.8125 15.1075 -1.8125 23.0275 -1.8125 31.1875 C-4.4525 31.1875 -7.0925 31.1875 -9.8125 31.1875 C-9.83715622 26.93335377 -9.85533899 22.67924502 -9.86743164 18.42504883 C-9.87247101 16.97679927 -9.87930253 15.52855483 -9.88793945 14.08032227 C-9.90002247 12.00275412 -9.90573211 9.92525303 -9.91015625 7.84765625 C-9.91539307 6.59605713 -9.92062988 5.34445801 -9.92602539 4.05493164 C-9.69251985 -1.84296635 -4.70802114 0.0036468 0 0 Z " fill="#ffffff" transform="translate(603.8125,491.8125)"/>
<path d="M0 0 C1.00023193 0.00523682 2.00046387 0.01047363 3.03100586 0.01586914 C4.1105957 0.0190918 5.19018555 0.02231445 6.30249023 0.02563477 C8.00695312 0.03820312 8.00695312 0.03820312 9.74584961 0.05102539 C11.45611328 0.05779297 11.45611328 0.05779297 13.20092773 0.06469727 C16.02845312 0.07652792 18.85587601 0.09301129 21.68334961 0.11352539 C21.68334961 2.42352539 21.68334961 4.73352539 21.68334961 7.11352539 C19.04334961 7.11352539 16.40334961 7.11352539 13.68334961 7.11352539 C13.69120483 8.15077759 13.69120483 8.15077759 13.69921875 9.20898438 C13.71992461 12.32298891 13.73298924 15.436979 13.74584961 18.55102539 C13.75422852 19.63963867 13.76260742 20.72825195 13.77124023 21.84985352 C13.77607422 23.4015625 13.77607422 23.4015625 13.78100586 24.98461914 C13.78886108 26.42212524 13.78886108 26.42212524 13.796875 27.88867188 C13.68334961 30.11352539 13.68334961 30.11352539 12.68334961 31.11352539 C10.37334961 31.11352539 8.06334961 31.11352539 5.68334961 31.11352539 C5.68334961 23.19352539 5.68334961 15.27352539 5.68334961 7.11352539 C2.71334961 7.11352539 -0.25665039 7.11352539 -3.31665039 7.11352539 C-3.35919395 5.11397793 -3.35745822 3.11310903 -3.31665039 1.11352539 C-2.31665039 0.11352539 -2.31665039 0.11352539 0 0 Z " fill="#ffffff" transform="translate(802.316650390625,491.886474609375)"/>
<path d="M0 0 C1.00023193 0.00523682 2.00046387 0.01047363 3.03100586 0.01586914 C4.1105957 0.0190918 5.19018555 0.02231445 6.30249023 0.02563477 C8.00695312 0.03820312 8.00695312 0.03820312 9.74584961 0.05102539 C11.45611328 0.05779297 11.45611328 0.05779297 13.20092773 0.06469727 C16.02845312 0.07652792 18.85587601 0.09301129 21.68334961 0.11352539 C21.68334961 2.42352539 21.68334961 4.73352539 21.68334961 7.11352539 C19.04334961 7.11352539 16.40334961 7.11352539 13.68334961 7.11352539 C13.69120483 8.15077759 13.69120483 8.15077759 13.69921875 9.20898438 C13.71992461 12.32298891 13.73298924 15.436979 13.74584961 18.55102539 C13.75422852 19.63963867 13.76260742 20.72825195 13.77124023 21.84985352 C13.77607422 23.4015625 13.77607422 23.4015625 13.78100586 24.98461914 C13.78886108 26.42212524 13.78886108 26.42212524 13.796875 27.88867188 C13.68334961 30.11352539 13.68334961 30.11352539 12.68334961 31.11352539 C10.37334961 31.11352539 8.06334961 31.11352539 5.68334961 31.11352539 C5.68334961 23.19352539 5.68334961 15.27352539 5.68334961 7.11352539 C2.71334961 7.11352539 -0.25665039 7.11352539 -3.31665039 7.11352539 C-3.35919395 5.11397793 -3.35745822 3.11310903 -3.31665039 1.11352539 C-2.31665039 0.11352539 -2.31665039 0.11352539 0 0 Z " fill="#ffffff" transform="translate(474.316650390625,491.886474609375)"/>
<path d="M0 0 C4.29 0 8.58 0 13 0 C13 4.29 13 8.58 13 13 C3.72265625 13.09765625 3.72265625 13.09765625 1 13 C0 12 0 12 -0.09765625 9.27734375 C-0.06510417 6.18489583 -0.03255208 3.09244792 0 0 Z " fill="#ffffff" transform="translate(319,577)"/>
<path d="M0 0 C4.29 0 8.58 0 13 0 C13 4.29 13 8.58 13 13 C3.72265625 13.09765625 3.72265625 13.09765625 1 13 C0 12 0 12 -0.09765625 9.27734375 C-0.06510417 6.18489583 -0.03255208 3.09244792 0 0 Z " fill="#ffffff" transform="translate(158,577)"/>
<path d="M0 0 C4.29 0 8.58 0 13 0 C13 3.96 13 7.92 13 12 C8.71 12 4.42 12 0 12 C0 8.04 0 4.08 0 0 Z " fill="#ffffff" transform="translate(319,309)"/>
<path d="M0 0 C4.29 0 8.58 0 13 0 C13 3.96 13 7.92 13 12 C8.71 12 4.42 12 0 12 C0 8.04 0 4.08 0 0 Z " fill="#ffffff" transform="translate(158,309)"/>
<path d="M0 0 C3.96 0 7.92 0 12 0 C12 3.96 12 7.92 12 12 C8.04 12 4.08 12 0 12 C0 8.04 0 4.08 0 0 Z " fill="#ffffff" transform="translate(389,443)"/>
<path d="M0 0 C3.96 0 7.92 0 12 0 C12 3.96 12 7.92 12 12 C8.04 12 4.08 12 0 12 C0 8.04 0 4.08 0 0 Z " fill="#ffffff" transform="translate(89,443)"/>
</svg>
