<svg xmlns="http://www.w3.org/2000/svg" width="500" height="500" viewBox="0 0 500 500">
<g>
<path d="M 259.54 370.35 C252.52,373.79 246.31,373.80 239.29,370.41 C227.35,364.63 217.23,350.15 208.99,327.04 L 205.23 316.50 L 201.87 316.78 C200.01,316.93 195.57,317.82 192.00,318.76 C182.06,321.36 154.59,321.21 146.65,318.51 C138.98,315.90 133.30,310.94 130.36,304.27 C127.23,297.20 127.35,291.31 130.84,281.49 C135.42,268.56 138.81,263.10 151.69,247.83 C155.71,243.07 159.00,238.86 159.00,238.49 C159.00,238.12 156.49,235.04 153.42,231.66 C142.23,219.32 132.51,203.46 130.02,193.50 C127.51,183.45 127.61,178.70 130.43,172.87 C134.52,164.40 137.67,161.55 146.10,158.69 C155.32,155.56 164.90,154.94 179.17,156.55 C186.50,157.38 193.62,158.46 195.00,158.95 C196.38,159.45 199.16,160.12 201.19,160.46 C204.69,161.04 204.94,160.90 205.88,157.78 C211.05,140.74 220.13,123.09 228.15,114.50 C246.51,94.86 266.57,101.30 282.65,132.00 C286.10,138.59 291.52,151.99 293.51,158.82 C294.12,160.93 294.57,161.08 298.34,160.46 C300.63,160.08 303.17,159.43 304.00,159.03 C306.70,157.69 324.32,155.66 333.00,155.69 C352.43,155.75 364.92,161.47 369.41,172.37 C371.70,177.94 371.51,190.15 369.04,196.66 C367.60,200.45 367.23,203.15 367.66,206.80 C368.64,215.07 363.45,221.91 356.10,222.03 C355.22,222.04 351.21,225.63 347.19,230.00 L 339.89 237.96 L 347.73 247.23 C359.31,260.91 369.00,276.47 369.00,281.39 C369.00,282.21 369.45,283.16 370.00,283.50 C370.55,283.84 371.00,285.80 371.00,287.86 C371.00,289.92 371.55,292.15 372.22,292.82 C373.19,293.79 373.19,294.46 372.22,296.01 C371.55,297.09 371.00,298.67 371.00,299.53 C371.00,304.93 360.75,316.26 354.68,317.55 C352.93,317.92 350.87,318.74 350.10,319.37 C347.78,321.24 315.90,320.81 308.00,318.80 C295.43,315.61 295.13,315.59 294.11,318.17 C287.51,334.85 286.81,337.28 287.45,341.50 C287.88,344.40 287.60,347.01 286.61,349.39 C285.11,352.97 279.95,356.99 276.83,357.00 C275.91,357.00 272.86,359.41 270.05,362.35 C267.24,365.29 262.51,368.89 259.54,370.35 ZM 238.76 280.13 C243.86,282.81 248.77,285.00 249.68,285.00 C251.88,285.00 274.56,272.96 284.25,266.64 L 292.00 261.59 L 291.94 241.55 C291.86,214.33 291.89,214.42 284.49,209.76 C281.19,207.69 277.83,205.69 277.00,205.32 C276.17,204.95 274.15,203.67 272.50,202.48 C268.16,199.35 251.47,191.00 249.56,191.00 C247.02,191.00 213.66,210.28 209.25,214.30 C207.05,216.31 207.00,216.81 207.00,238.22 C207.00,239.41 207.00,240.55 207.00,241.62 C206.98,254.59 206.98,259.35 209.26,262.42 C210.77,264.45 213.28,265.73 217.47,268.17 C220.61,270.00 224.60,272.35 226.34,273.38 C228.08,274.41 233.67,277.45 238.76,280.13 ZM 321.50 308.41 C323.15,308.65 329.27,308.68 335.10,308.50 C347.05,308.11 353.51,305.90 357.02,300.98 C363.20,292.30 354.56,272.14 336.57,253.25 C333.82,250.36 331.06,248.00 330.44,248.00 C329.82,248.00 328.45,248.95 327.40,250.12 C326.36,251.29 320.47,256.04 314.33,260.68 C301.97,270.03 302.81,268.54 301.41,283.50 C301.05,287.35 300.42,291.17 300.01,292.00 C299.60,292.83 298.98,295.80 298.62,298.62 L 297.97 303.73 L 302.23 304.80 C306.48,305.86 315.78,307.61 321.50,308.41 ZM 160.87 221.45 C164.92,226.15 168.45,230.00 168.71,230.00 C168.97,230.00 172.63,226.94 176.84,223.21 C181.05,219.47 187.09,214.46 190.26,212.07 C193.43,209.69 196.23,206.78 196.47,205.62 C196.71,204.45 197.38,200.12 197.95,196.00 C199.21,186.86 200.68,178.58 201.51,175.96 C202.20,173.81 200.78,173.01 193.00,171.19 C176.69,167.38 156.44,167.21 149.35,170.82 C143.81,173.65 142.01,176.08 141.37,181.61 C140.23,191.32 147.24,205.64 160.87,221.45 ZM 155.09 307.98 C160.69,309.17 180.94,308.54 187.50,306.98 C197.86,304.51 200.32,304.05 200.87,302.78 C201.04,302.38 201.03,301.91 201.01,301.27 C201.01,301.06 201.00,300.83 201.00,300.58 C201.00,298.84 200.36,294.95 199.57,291.93 C198.78,288.91 197.82,282.51 197.43,277.70 L 196.72 268.96 L 189.72 263.73 C185.86,260.85 181.31,257.54 179.61,256.36 C177.90,255.19 175.18,252.82 173.56,251.11 C171.95,249.40 170.04,248.00 169.33,248.00 C167.87,248.00 162.73,253.41 155.05,263.00 C144.78,275.84 138.98,291.78 141.87,299.21 C143.21,302.67 149.41,306.78 155.09,307.98 ZM 246.00 175.76 C249.60,177.35 250.38,177.26 256.23,174.59 C263.35,171.34 274.77,167.18 278.75,166.39 C280.93,165.96 282.00,165.18 282.00,164.01 C282.00,160.61 277.88,149.36 272.86,139.06 C264.78,122.46 255.10,113.72 246.83,115.54 C240.23,116.99 230.75,128.72 224.47,143.20 C223.34,145.79 222.10,148.23 221.71,148.62 C221.32,149.01 221.00,150.05 220.99,150.92 C220.99,151.79 220.33,153.76 219.53,155.29 C218.73,156.83 217.80,159.57 217.46,161.38 C216.84,164.66 216.86,164.68 223.17,166.89 C226.65,168.11 231.30,169.82 233.50,170.69 C241.49,173.85 243.54,174.68 246.00,175.76 ZM 322.00 222.38 C326.12,226.00 330.20,228.96 331.05,228.98 C332.60,229.00 337.77,224.03 341.83,218.62 C343.48,216.43 344.00,214.32 344.00,209.92 C344.00,202.99 346.28,199.67 352.50,197.56 C355.83,196.42 356.70,195.54 357.67,192.35 C358.32,190.23 358.88,186.17 358.92,183.33 C359.02,177.04 356.21,173.10 349.79,170.53 C344.06,168.24 330.48,167.52 319.19,168.91 C310.47,169.98 299.27,172.40 298.24,173.43 C297.99,173.68 298.29,176.50 298.92,179.69 C299.55,182.89 300.71,190.45 301.50,196.50 C302.29,202.55 302.95,207.55 302.97,207.61 C302.98,207.66 305.59,209.53 308.75,211.76 C311.91,213.99 317.88,218.77 322.00,222.38 ZM 244.16 358.99 C245.45,359.53 248.45,359.81 250.84,359.60 C254.25,359.31 256.03,358.40 259.09,355.41 C262.45,352.13 263.00,350.98 263.00,347.25 C263.00,340.28 266.42,335.25 272.47,333.31 C274.97,332.50 275.95,331.10 278.68,324.43 C278.83,324.05 278.98,323.68 279.13,323.32 C281.22,318.20 282.30,315.57 281.52,313.72 C280.65,311.64 277.45,310.54 270.75,307.98 C264.56,305.61 257.93,302.85 256.01,301.84 C254.10,300.83 251.64,300.00 250.55,300.00 C249.46,300.00 243.60,301.98 237.53,304.39 C231.46,306.81 224.36,309.57 221.75,310.53 C219.14,311.49 217.00,312.56 217.00,312.92 C217.00,313.28 217.88,316.03 218.95,319.03 C222.94,330.25 226.09,337.54 228.51,341.20 C229.88,343.26 231.00,345.36 231.00,345.84 C231.00,347.30 241.64,357.92 244.16,358.99 ZM 244.92 267.41 C240.46,271.16 234.58,270.84 230.44,266.62 C228.76,264.91 225.67,262.20 223.58,260.62 C219.86,257.80 219.78,257.61 220.22,252.37 C220.58,248.06 220.30,246.68 218.83,245.35 C216.66,243.38 216.25,234.15 218.25,232.15 C218.94,231.46 219.51,228.85 219.53,226.34 C219.56,221.95 219.86,221.48 227.75,213.89 C235.21,206.70 236.29,206.00 239.97,206.00 C242.67,206.00 244.66,206.66 246.00,208.00 C247.90,209.90 248.00,211.33 248.00,237.41 L 248.00 264.82 ZM 270.40 265.51 C264.20,270.97 259.93,271.50 255.08,267.41 L 252.00 264.82 L 252.00 237.41 C252.00,211.33 252.10,209.90 254.00,208.00 C258.64,203.36 266.16,206.77 276.75,218.32 C281.19,223.16 281.72,224.79 279.92,228.15 C279.07,229.74 279.23,230.59 280.67,232.19 C282.92,234.68 283.17,242.89 281.06,245.42 C280.15,246.53 279.72,248.93 279.89,252.04 C280.10,256.09 279.75,257.28 277.82,258.97 C276.54,260.10 273.20,263.04 270.40,265.51 ZM 270.00 149.49 C270.00,150.11 268.71,151.86 267.13,153.38 L 264.26 156.13 L 257.38 150.08 C253.60,146.76 250.09,144.03 249.59,144.02 C249.09,144.01 246.09,146.48 242.91,149.50 C236.63,155.49 232.91,156.57 230.98,152.96 C229.27,149.77 230.42,147.93 239.95,138.60 C248.26,130.47 249.04,129.95 251.19,131.08 C254.33,132.74 270.00,148.07 270.00,149.49 ZM 222.20 241.80 C222.67,242.27 222.97,242.62 223.34,242.75 C224.17,243.04 225.39,242.25 229.87,239.34 C230.18,239.13 230.52,238.91 230.87,238.68 C234.51,236.31 238.75,233.59 240.29,232.64 C243.06,230.91 243.07,230.87 242.79,221.20 C242.51,211.83 242.42,211.49 240.11,211.16 C238.30,210.91 236.22,212.32 231.36,217.13 C224.84,223.60 224.37,224.45 225.94,226.93 C226.67,228.10 227.69,227.68 231.34,224.68 C236.51,220.45 237.61,220.20 238.52,223.07 C239.44,225.96 237.06,228.25 229.70,231.55 C221.55,235.20 219.03,238.63 222.20,241.80 ZM 269.38 239.48 C272.06,241.42 274.56,243.00 274.93,243.00 C276.31,243.00 278.00,240.53 278.00,238.50 C278.00,236.06 276.23,234.00 274.14,234.00 C273.33,234.00 270.46,232.58 267.75,230.84 C262.78,227.65 260.57,224.28 261.64,221.51 C262.57,219.07 265.71,219.72 266.41,222.49 C267.60,227.24 275.00,229.76 275.00,225.41 C275.00,222.69 262.23,210.83 259.68,211.19 C257.61,211.48 257.50,211.99 257.50,221.46 L 257.50 231.42 L 261.00 233.69 C262.92,234.94 266.69,237.55 269.38,239.48 ZM 304.00 238.01 C304.00,249.59 304.25,252.09 305.39,251.82 C306.16,251.65 310.26,248.65 314.49,245.16 L 322.20 238.81 L 319.35 235.79 C316.83,233.12 308.70,226.68 305.25,224.63 C304.27,224.04 304.00,226.98 304.00,238.01 ZM 213.50 298.75 C213.67,299.24 213.74,299.58 213.94,299.74 C214.36,300.07 215.33,299.70 218.79,298.39 C219.16,298.24 219.57,298.09 220.01,297.92 C223.03,296.78 227.07,295.39 229.00,294.83 C230.93,294.27 232.87,293.46 233.32,293.03 C233.78,292.60 231.13,290.57 227.44,288.50 C223.76,286.44 218.82,283.46 216.47,281.88 C211.56,278.56 210.00,278.29 210.00,280.75 C210.00,282.55 212.72,296.53 213.50,298.75 ZM 282.50 299.00 C283.60,299.43 284.88,299.42 285.35,298.98 C285.97,298.41 289.89,281.74 289.99,279.25 C290.04,277.94 267.70,290.06 266.51,291.98 C266.23,292.44 269.26,294.04 273.25,295.52 C277.24,297.01 281.40,298.57 282.50,299.00 ZM 187.59 246.86 L 194.50 252.23 L 194.78 238.98 C194.93,231.69 194.83,225.50 194.55,225.22 C194.28,224.94 191.51,226.92 188.41,229.61 C185.31,232.30 181.81,235.27 180.64,236.21 C177.79,238.48 178.81,240.05 187.59,246.86 ZM 210.00 196.83 C210.00,197.47 210.23,198.00 210.51,198.00 C212.13,198.00 232.99,184.60 232.31,184.00 C230.56,182.42 214.62,176.98 213.92,177.72 C213.23,178.44 210.00,194.19 210.00,196.83 ZM 277.75 191.24 C283.11,194.38 287.90,196.96 288.38,196.98 C288.87,196.99 288.98,195.31 288.63,193.25 C288.28,191.19 287.71,187.10 287.35,184.16 C286.97,181.01 286.13,178.60 285.31,178.29 C282.72,177.30 268.00,182.52 268.00,184.43 C268.00,185.04 272.39,188.10 277.75,191.24 ZM 225.20 255.80 C227.08,257.68 228.43,257.23 230.26,254.14 C231.19,252.57 234.43,249.57 237.47,247.47 C241.98,244.37 243.00,243.14 243.00,240.83 C243.00,239.12 242.47,238.00 241.65,238.00 C239.94,238.00 232.64,243.16 227.75,247.83 C223.86,251.54 223.15,253.75 225.20,255.80 ZM 264.25 249.60 C268.24,253.52 271.83,256.79 272.23,256.87 C273.60,257.12 276.05,252.28 275.40,250.60 C275.05,249.68 273.50,248.27 271.96,247.48 C270.42,246.68 267.07,244.22 264.52,242.01 C259.28,237.48 257.00,236.94 257.00,240.23 C257.00,241.68 259.54,244.97 264.25,249.60 ZM 234.04 262.81 C236.44,265.39 239.24,265.62 241.43,263.43 C243.60,261.26 243.66,251.00 241.50,251.00 C239.95,251.00 232.00,258.37 232.00,259.81 C232.00,260.26 232.92,261.61 234.04,262.81 ZM 258.25 264.34 C260.96,265.43 263.77,264.91 265.51,262.99 C267.12,261.21 267.17,260.68 265.94,258.39 C264.46,255.62 259.45,251.00 257.92,251.00 C256.47,251.00 256.78,263.74 258.25,264.34 Z" fill="rgb(41,66,92)"/>
<path d="M 0.00 250.00 L 0.00 0.00 L 250.00 0.00 L 500.00 0.00 L 500.00 250.00 L 500.00 500.00 L 250.00 500.00 L 0.00 500.00 L 0.00 250.00 ZM 259.54 370.35 C262.51,368.89 267.24,365.29 270.05,362.35 C272.86,359.41 275.91,357.00 276.83,357.00 C279.95,356.99 285.11,352.97 286.61,349.39 C287.60,347.01 287.88,344.40 287.45,341.50 C286.81,337.28 287.51,334.85 294.11,318.17 C295.13,315.59 295.43,315.61 308.00,318.80 C315.90,320.81 347.78,321.24 350.10,319.37 C350.87,318.74 352.93,317.92 354.68,317.55 C360.75,316.26 371.00,304.93 371.00,299.53 C371.00,298.67 371.55,297.09 372.22,296.01 C373.19,294.46 373.19,293.79 372.22,292.82 C371.55,292.15 371.00,289.92 371.00,287.86 C371.00,285.80 370.55,283.84 370.00,283.50 C369.45,283.16 369.00,282.21 369.00,281.39 C369.00,276.47 359.31,260.91 347.73,247.23 L 339.89 237.96 L 347.19 230.00 C351.21,225.63 355.22,222.04 356.10,222.03 C363.45,221.91 368.64,215.07 367.66,206.80 C367.23,203.15 367.60,200.45 369.04,196.66 C371.51,190.15 371.70,177.94 369.41,172.37 C364.92,161.47 352.43,155.75 333.00,155.69 C324.32,155.66 306.70,157.69 304.00,159.03 C303.17,159.43 300.63,160.08 298.34,160.46 C294.57,161.08 294.12,160.93 293.51,158.82 C291.52,151.99 286.10,138.59 282.65,132.00 C266.57,101.30 246.51,94.86 228.15,114.50 C220.13,123.09 211.05,140.74 205.88,157.78 C204.94,160.90 204.69,161.04 201.19,160.46 C199.16,160.12 196.38,159.45 195.00,158.95 C193.62,158.46 186.50,157.38 179.17,156.55 C164.90,154.94 155.32,155.56 146.10,158.69 C137.67,161.55 134.52,164.40 130.43,172.87 C127.61,178.70 127.51,183.45 130.02,193.50 C132.51,203.46 142.23,219.32 153.42,231.66 C156.49,235.04 159.00,238.12 159.00,238.49 C159.00,238.86 155.71,243.07 151.69,247.83 C138.81,263.10 135.42,268.56 130.84,281.49 C127.35,291.31 127.23,297.20 130.36,304.27 C133.30,310.94 138.98,315.90 146.65,318.51 C154.59,321.21 182.06,321.36 192.00,318.76 C195.57,317.82 200.01,316.93 201.87,316.78 L 205.23 316.50 L 208.99 327.04 C217.23,350.15 227.35,364.63 239.29,370.41 C246.31,373.80 252.52,373.79 259.54,370.35 ZM 244.16 358.99 C241.64,357.92 231.00,347.30 231.00,345.84 C231.00,345.36 229.88,343.26 228.51,341.20 C226.09,337.54 222.94,330.25 218.95,319.03 C217.88,316.03 217.00,313.28 217.00,312.92 C217.00,312.56 219.14,311.49 221.75,310.53 C224.36,309.57 231.46,306.81 237.53,304.39 C243.60,301.98 249.46,300.00 250.55,300.00 C251.64,300.00 254.10,300.83 256.01,301.84 C257.93,302.85 264.56,305.61 270.75,307.98 C283.84,312.98 283.57,312.42 278.68,324.43 C275.95,331.10 274.97,332.50 272.47,333.31 C266.42,335.25 263.00,340.28 263.00,347.25 C263.00,350.98 262.45,352.13 259.09,355.41 C256.03,358.40 254.25,359.31 250.84,359.60 C248.45,359.81 245.45,359.53 244.16,358.99 ZM 155.09 307.98 C149.41,306.78 143.21,302.67 141.87,299.21 C138.98,291.78 144.78,275.84 155.05,263.00 C162.73,253.41 167.87,248.00 169.33,248.00 C170.04,248.00 171.95,249.40 173.56,251.11 C175.18,252.82 177.90,255.19 179.61,256.36 C181.31,257.54 185.86,260.85 189.72,263.73 L 196.72 268.96 L 197.43 277.70 C197.82,282.51 198.78,288.91 199.57,291.93 C200.36,294.95 201.00,298.84 201.00,300.58 C201.00,304.02 202.13,303.49 187.50,306.98 C180.94,308.54 160.69,309.17 155.09,307.98 ZM 321.50 308.41 C315.78,307.61 306.48,305.86 302.23,304.80 L 297.97 303.73 L 298.62 298.62 C298.98,295.80 299.60,292.83 300.01,292.00 C300.42,291.17 301.05,287.35 301.41,283.50 C302.81,268.54 301.97,270.03 314.33,260.68 C320.47,256.04 326.36,251.29 327.40,250.12 C328.45,248.95 329.82,248.00 330.44,248.00 C331.06,248.00 333.82,250.36 336.57,253.25 C354.56,272.14 363.20,292.30 357.02,300.98 C353.51,305.90 347.05,308.11 335.10,308.50 C329.27,308.68 323.15,308.65 321.50,308.41 ZM 213.50 298.75 C212.72,296.53 210.00,282.55 210.00,280.75 C210.00,278.29 211.56,278.56 216.47,281.88 C218.82,283.46 223.76,286.44 227.44,288.50 C231.13,290.57 233.78,292.60 233.32,293.03 C232.87,293.46 230.93,294.27 229.00,294.83 C227.07,295.39 223.03,296.78 220.01,297.92 C213.54,300.38 214.05,300.31 213.50,298.75 ZM 282.50 299.00 C281.40,298.57 277.24,297.01 273.25,295.52 C269.26,294.04 266.23,292.44 266.51,291.98 C267.70,290.06 290.04,277.94 289.99,279.25 C289.89,281.74 285.97,298.41 285.35,298.98 C284.88,299.42 283.60,299.43 282.50,299.00 ZM 238.76 280.13 C233.67,277.45 228.08,274.41 226.34,273.38 C224.60,272.35 220.61,270.00 217.47,268.17 C206.45,261.76 207.00,263.32 207.00,238.22 C207.00,216.81 207.05,216.31 209.25,214.30 C213.66,210.28 247.02,191.00 249.56,191.00 C251.47,191.00 268.16,199.35 272.50,202.48 C274.15,203.67 276.17,204.95 277.00,205.32 C277.83,205.69 281.19,207.69 284.49,209.76 C291.89,214.42 291.86,214.33 291.94,241.55 L 292.00 261.59 L 284.25 266.64 C274.56,272.96 251.88,285.00 249.68,285.00 C248.77,285.00 243.86,282.81 238.76,280.13 ZM 244.92 267.41 L 248.00 264.82 L 248.00 237.41 C248.00,211.33 247.90,209.90 246.00,208.00 C244.66,206.66 242.67,206.00 239.97,206.00 C236.29,206.00 235.21,206.70 227.75,213.89 C219.86,221.48 219.56,221.95 219.53,226.34 C219.51,228.85 218.94,231.46 218.25,232.15 C216.25,234.15 216.66,243.38 218.83,245.35 C220.30,246.68 220.58,248.06 220.22,252.37 C219.78,257.61 219.86,257.80 223.58,260.62 C225.67,262.20 228.76,264.91 230.44,266.62 C234.58,270.84 240.46,271.16 244.92,267.41 ZM 270.40 265.51 C273.20,263.04 276.54,260.10 277.82,258.97 C279.75,257.28 280.10,256.09 279.89,252.04 C279.72,248.93 280.15,246.53 281.06,245.42 C283.17,242.89 282.92,234.68 280.67,232.19 C279.23,230.59 279.07,229.74 279.92,228.15 C281.72,224.79 281.19,223.16 276.75,218.32 C266.16,206.77 258.64,203.36 254.00,208.00 C252.10,209.90 252.00,211.33 252.00,237.41 L 252.00 264.82 L 255.08 267.41 C259.93,271.50 264.20,270.97 270.40,265.51 ZM 187.59 246.86 C178.81,240.05 177.79,238.48 180.64,236.21 C181.81,235.27 185.31,232.30 188.41,229.61 C191.51,226.92 194.28,224.94 194.55,225.22 C194.83,225.50 194.93,231.69 194.78,238.98 L 194.50 252.23 L 187.59 246.86 ZM 304.00 238.01 C304.00,226.98 304.27,224.04 305.25,224.63 C308.70,226.68 316.83,233.12 319.35,235.79 L 322.20 238.81 L 314.49 245.16 C310.26,248.65 306.16,251.65 305.39,251.82 C304.25,252.09 304.00,249.59 304.00,238.01 ZM 160.87 221.45 C147.24,205.64 140.23,191.32 141.37,181.61 C142.01,176.08 143.81,173.65 149.35,170.82 C156.44,167.21 176.69,167.38 193.00,171.19 C200.78,173.01 202.20,173.81 201.51,175.96 C200.68,178.58 199.21,186.86 197.95,196.00 C197.38,200.12 196.71,204.45 196.47,205.62 C196.23,206.78 193.43,209.69 190.26,212.07 C187.09,214.46 181.05,219.47 176.84,223.21 C172.63,226.94 168.97,230.00 168.71,230.00 C168.45,230.00 164.92,226.15 160.87,221.45 ZM 322.00 222.38 C317.88,218.77 311.91,213.99 308.75,211.76 C305.59,209.53 302.98,207.66 302.97,207.61 C302.95,207.55 302.29,202.55 301.50,196.50 C300.71,190.45 299.55,182.89 298.92,179.69 C298.29,176.50 297.99,173.68 298.24,173.43 C299.27,172.40 310.47,169.98 319.19,168.91 C330.48,167.52 344.06,168.24 349.79,170.53 C356.21,173.10 359.02,177.04 358.92,183.33 C358.88,186.17 358.32,190.23 357.67,192.35 C356.70,195.54 355.83,196.42 352.50,197.56 C346.28,199.67 344.00,202.99 344.00,209.92 C344.00,214.32 343.48,216.43 341.83,218.62 C337.77,224.03 332.60,229.00 331.05,228.98 C330.20,228.96 326.12,226.00 322.00,222.38 ZM 210.00 196.83 C210.00,194.19 213.23,178.44 213.92,177.72 C214.62,176.98 230.56,182.42 232.31,184.00 C232.99,184.60 212.13,198.00 210.51,198.00 C210.23,198.00 210.00,197.47 210.00,196.83 ZM 277.75 191.24 C272.39,188.10 268.00,185.04 268.00,184.43 C268.00,182.52 282.72,177.30 285.31,178.29 C286.13,178.60 286.97,181.01 287.35,184.16 C287.71,187.10 288.28,191.19 288.63,193.25 C288.98,195.31 288.87,196.99 288.38,196.98 C287.90,196.96 283.11,194.38 277.75,191.24 ZM 246.00 175.76 C243.54,174.68 241.49,173.85 233.50,170.69 C231.30,169.82 226.65,168.11 223.17,166.89 C216.86,164.68 216.84,164.66 217.46,161.38 C217.80,159.57 218.73,156.83 219.53,155.29 C220.33,153.76 220.99,151.79 220.99,150.92 C221.00,150.05 221.32,149.01 221.71,148.62 C222.10,148.23 223.34,145.79 224.47,143.20 C230.75,128.72 240.23,116.99 246.83,115.54 C255.10,113.72 264.78,122.46 272.86,139.06 C277.88,149.36 282.00,160.61 282.00,164.01 C282.00,165.18 280.93,165.96 278.75,166.39 C274.77,167.18 263.35,171.34 256.23,174.59 C250.38,177.26 249.60,177.35 246.00,175.76 ZM 270.00 149.49 C270.00,148.07 254.33,132.74 251.19,131.08 C249.04,129.95 248.26,130.47 239.95,138.60 C230.42,147.93 229.27,149.77 230.98,152.96 C232.91,156.57 236.63,155.49 242.91,149.50 C246.09,146.48 249.09,144.01 249.59,144.02 C250.09,144.03 253.60,146.76 257.38,150.08 L 264.26 156.13 L 267.13 153.38 C268.71,151.86 270.00,150.11 270.00,149.49 ZM 234.04 262.81 C232.92,261.61 232.00,260.26 232.00,259.81 C232.00,258.37 239.95,251.00 241.50,251.00 C243.66,251.00 243.60,261.26 241.43,263.43 C239.24,265.62 236.44,265.39 234.04,262.81 ZM 225.20 255.80 C223.15,253.75 223.86,251.54 227.75,247.83 C232.64,243.16 239.94,238.00 241.65,238.00 C242.47,238.00 243.00,239.12 243.00,240.83 C243.00,243.14 241.98,244.37 237.47,247.47 C234.43,249.57 231.19,252.57 230.26,254.14 C228.43,257.23 227.08,257.68 225.20,255.80 ZM 222.20 241.80 C219.03,238.63 221.55,235.20 229.70,231.55 C237.06,228.25 239.44,225.96 238.52,223.07 C237.61,220.20 236.51,220.45 231.34,224.68 C227.69,227.68 226.67,228.10 225.94,226.93 C224.37,224.45 224.84,223.60 231.36,217.13 C236.22,212.32 238.30,210.91 240.11,211.16 C242.42,211.49 242.51,211.83 242.79,221.20 C243.07,230.87 243.06,230.91 240.29,232.64 C238.75,233.59 234.51,236.31 230.87,238.68 C223.36,243.57 223.81,243.41 222.20,241.80 ZM 258.25 264.34 C256.78,263.74 256.47,251.00 257.92,251.00 C259.45,251.00 264.46,255.62 265.94,258.39 C267.17,260.68 267.12,261.21 265.51,262.99 C263.77,264.91 260.96,265.43 258.25,264.34 ZM 264.25 249.60 C259.54,244.97 257.00,241.68 257.00,240.23 C257.00,236.94 259.28,237.48 264.52,242.01 C267.07,244.22 270.42,246.68 271.96,247.48 C273.50,248.27 275.05,249.68 275.40,250.60 C276.05,252.28 273.60,257.12 272.23,256.87 C271.83,256.79 268.24,253.52 264.25,249.60 ZM 269.38 239.48 C266.69,237.55 262.92,234.94 261.00,233.69 L 257.50 231.42 L 257.50 221.46 C257.50,211.99 257.61,211.48 259.68,211.19 C262.23,210.83 275.00,222.69 275.00,225.41 C275.00,229.76 267.60,227.24 266.41,222.49 C265.71,219.72 262.57,219.07 261.64,221.51 C260.57,224.28 262.78,227.65 267.75,230.84 C270.46,232.58 273.33,234.00 274.14,234.00 C276.23,234.00 278.00,236.06 278.00,238.50 C278.00,240.53 276.31,243.00 274.93,243.00 C274.56,243.00 272.06,241.42 269.38,239.48 Z" fill="rgb(253,254,254)"/>
</g>
</svg>